<?xml version="1.0" encoding="UTF-8"?>
<svg id="_Слой_2" data-name="Слой 2" xmlns="http://www.w3.org/2000/svg" viewBox="0 0 525.5 543.97">
  <defs>
    <style>
      .cls-1 {
        fill: #fff;
      }

      .cls-2 {
        fill: #f4e6a8;
      }

      .cls-3 {
        fill: #adc882;
      }

      .cls-4 {
        fill: #f5e6a5;
      }

      .cls-5 {
        fill: #dbd846;
      }

      .cls-6 {
        fill: #231f20;
      }

      .cls-7 {
        fill: #d5abb9;
      }
    </style>
  </defs>
  <g id="Rise_up" data-name="Rise up">
    <g>
      <rect class="cls-1" width="525.5" height="543.97" rx="45.16" ry="45.16"/>
      <g id="_Патапон" data-name="Патапон">
        <circle class="cls-6" cx="120.05" cy="391.35" r="82.94"/>
        <path class="cls-6" d="M176.76,447.98s20.91,21.41,33.18,11.52c0,0,12.15-7.39,11.52-26.67l-10.14-1.38s0,19.28-9.27,20.41c0,0-12.4-4.76-18.16-12.27l-7.14,8.39Z"/>
        <circle class="cls-6" cx="217.52" cy="422.88" r="11.71"/>
        <path class="cls-6" d="M122.28,471.7l5.41,49.29h23.65s3.41-.71,3.88-4.59c0,0,.59-4.24-4.12-4.71l-15.41-.12-4.71-41.53-8.71,1.65Z"/>
        <path class="cls-6" d="M93.58,466.06l-7.53,54.94-23.18,.12s-4.47-.71-3.65-4.59c0,0-.12-3.88,3.06-4.12l15.76-.47,6.94-48.59,8.59,2.71Z"/>
        <path class="cls-6" d="M56.52,343.53s-9.62-59.82-9.44-67.94l-11.03,1.94s9.88,73.41,11.82,77.29l8.65-11.29Z"/>
        <circle class="cls-6" cx="39.62" cy="269.1" r="12.13"/>
        <path class="cls-6" d="M32.34,292.7s-15.53-.71-17.12,4.06c0,0-1.59,7.24,19.59,9,0,0,22.94,1.68,25.85-5.21,0,0-.79-6.26-13.68-7.41l-.44-39.35s21.62-4.59,25.24-10.59c0,0-18-15.88-17.91-20.65,0,0-2.47-27.97,.26-36.09,0,0,30.94-52.76,27.94-96.67,0,0,4.91-34.56-27.09-73.86,0,0-28,20.82-36.24,68.94,0,0-7.06,44.35,16.71,102.12,0,0,.12,27.06-4.59,34.47,0,0-12.82,16.71-19.76,18,0,0,5.06,9.65,23.76,13.65l-2.53,39.59Z"/>
        <path class="cls-1" d="M44.17,201.47c-4.94-129.18,9.53-162,9.53-162,0,0,9.18,61.76-9.53,162Z"/>
        <polygon class="cls-6" points="104.28 312.17 112.76 292.41 192.76 327 184.76 343.47 104.28 312.17"/>
        <path class="cls-6" d="M139.81,305.35c24.47-71.76,6.12-79.53,6.12-79.53-18.12,1.65-15.53,76.71-15.53,76.71l9.41,2.82Z"/>
        <path class="cls-6" d="M145.46,309.59s22.82-92.71,44.47-85.88c0,0,17.65,19.29-31.76,90.59l-12.71-4.71Z"/>
        <path class="cls-6" d="M169.46,318.53s26.35-68.47,47.76-61.88c0,0,12.94,13.65-38.12,66.12l-9.65-4.24Z"/>
        <circle class="cls-1" cx="111" cy="389.24" r="55.02"/>
        <circle class="cls-6" cx="106.81" cy="379.02" r="36.15"/>
      </g>
      <g id="Rise_up-2" data-name="Rise up">
        <g>
          <path class="cls-2" d="M177.19,159.6l5.48,19.04-26.53-.7L115.77,55.98l92.85,30.17-35.32,43.3,51.9,25.24-6.88,26.13-41.13-21.22Zm-18.38-57.08l2.74-4-4.82-1.71,2.08,5.71Z"/>
          <path class="cls-6" d="M125.19,65.35l73.24,23.79-34.58,42.38,54.28,26.4-3.72,14.13-46.84-24.17,7.06,24.54-14.13-.37-35.32-106.7m31.97,50.19l13.76-20.08-24.17-8.55,10.41,28.63M106.35,46.61l7.45,22.51,35.32,106.7,2.65,8,8.43,.22,14.13,.37,16.38,.43-3.9-13.54,22.11,11.41,13.3,6.86,3.81-14.47,3.72-14.13,2.51-9.53-8.87-4.31-40.65-19.77,24.99-30.64,11.08-13.58-16.67-5.42-73.24-23.79-22.55-7.33h0Z"/>
        </g>
        <g>
          <polygon class="cls-3" points="327.57 135.42 267.77 105.03 340.65 58.94 388.69 58.94 321.15 101.89 380.02 131.69 310.12 177.62 260.45 178.08 327.57 135.42"/>
          <path class="cls-6" d="M368.07,64.94l-59.03,37.54,59.03,29.89-59.77,39.27-26.92,.25,58.29-37.05-59.77-30.38,62.49-39.52h25.69m41.23-12h-70.39l-2.94,1.86-62.49,39.52-17.83,11.28,18.81,9.56,41.01,20.84-40.53,25.76-35.42,22.51,41.97-.39,26.92-.25,3.53-.03,2.95-1.94,59.77-39.27,17.32-11.38-18.48-9.36-40.23-20.37,41.25-26.23,34.79-22.13h0Z"/>
        </g>
        <g>
          <g>
            <polygon class="cls-5" points="249.53 92.11 259.91 59.28 287.36 59.72 276.61 92.33 249.53 92.11"/>
            <path class="cls-6" d="M264.28,65.35l14.82,.24-6.82,20.71-14.59-.12,6.59-20.82m-8.75-12.14l-2.7,8.52-6.59,20.82-4.9,15.49,16.24,.13,14.59,.12,8.75,.07,2.74-8.31,6.82-20.71,5.11-15.5-16.31-.26-14.82-.24-8.94-.14h0Z"/>
          </g>
          <g>
            <polygon class="cls-5" points="248.26 95.75 275.77 96.18 249.38 178.11 219.84 178.53 248.26 95.75"/>
            <path class="cls-6" d="M252.52,101.82l15.06,.24-22.59,70.12-16.71,.24,24.24-70.59m-8.52-12.13l-2.83,8.24-24.24,70.59-5.54,16.14,17.06-.24,16.71-.24,8.61-.12,2.64-8.2,22.59-70.12,4.97-15.42-16.2-.25-15.06-.24-8.71-.14h0Z"/>
          </g>
        </g>
        <g>
          <polygon class="cls-7" points="375.09 128.06 495.47 53.17 484.45 89.92 450.55 111.47 474.2 111.47 473.55 137.97 457.83 137.89 492.85 155.05 483.76 179.71 375.09 128.06"/>
          <path class="cls-6" d="M485.17,66.64l-5.82,19.41-49.41,31.41h38.12l-.35,14.47-36-.18,53.65,26.29-4.94,13.41-92.82-44.12,97.59-60.71m20.62-26.96l-26.95,16.77-97.59,60.71-18.65,11.6,19.84,9.43,92.82,44.12,11.87,5.64,4.54-12.33,4.94-13.41,3.74-10.16-9.72-4.76-11.17-5.47,.23-9.58,.35-14.47,.3-12.29h-9.17l14.61-9.28,3.77-2.4,1.28-4.28,5.82-19.41,9.12-30.4h0Z"/>
        </g>
        <g>
          <polygon class="cls-5" points="316.01 187.92 345.71 188.38 326.19 246.96 340.24 242.93 365.59 167.84 395.53 167.38 365.44 262.79 280.31 292.74 316.01 187.92"/>
          <path class="cls-6" d="M385.93,174.53l-26.12,82.82-68.24,24,29.41-86.35,15.06,.24-20.71,62.12,30.35-8.71,24.94-73.88,15.29-.24m19.19-14.3l-19.4,.3-15.29,.24-9.89,.15-3.16,9.37-3.79,11.22-17.32-.27-15.06-.24-10.19-.16-3.28,9.64-29.41,86.35-9.29,27.28,27.19-9.56,68.24-24,6.6-2.32,2.1-6.67,26.12-82.82,5.84-18.51h0Z"/>
        </g>
        <g>
          <path class="cls-4" d="M415.29,286.34l-24.85-126.69,111.18,53.82-68.3,31.52,9.63,43.07-27.65-1.73Zm13.41-68.03l12.91-5.59-15.61-7.8,2.7,13.39Z"/>
          <path class="cls-6" d="M398.64,170.29l88.94,43.06-61.18,28.24,8.94,40-15.06-.94-21.65-110.35m25.65,56.47l31.53-13.65-38.12-19.06,6.59,32.71m-42.05-77.74l4.63,23.58,21.65,110.35,1.78,9.09,9.24,.58,15.06,.94,15.94,1-3.48-15.59-6.83-30.55,52.38-24.18,23.05-10.64-22.85-11.06-88.94-43.06-21.63-10.47h0Z"/>
        </g>
      </g>
    </g>
  </g>
</svg>