<?xml version="1.0" encoding="UTF-8"?>
<svg id="_Слой_2" data-name="Слой 2" xmlns="http://www.w3.org/2000/svg" viewBox="0 0 479.09 543.97">
  <defs>
    <style>
      .cls-1 {
        fill: #fff;
      }

      .cls-2 {
        fill: #bf2856;
      }

      .cls-3 {
        fill: #bd2456;
      }

      .cls-4 {
        fill: #bb2656;
      }

      .cls-5 {
        fill: #aecd7f;
      }

      .cls-6 {
        fill: #dbabbb;
      }

      .cls-7 {
        fill: #aec983;
      }

      .cls-8 {
        fill: #d5d747;
      }

      .cls-9 {
        fill: #d8da43;
      }

      .cls-10 {
        fill: #adc986;
      }

      .cls-11 {
        fill: #d9a292;
      }

      .cls-12 {
        fill: #daa966;
      }

      .cls-13 {
        fill: #daaa60;
      }

      .cls-14 {
        fill: #231f20;
      }

      .cls-15 {
        fill: #a9c684;
      }

      .cls-16 {
        fill: #d5d74f;
      }
    </style>
  </defs>
  <g id="You_have_a_point" data-name="You have a point">
    <g>
      <rect class="cls-1" width="479.09" height="543.97" rx="45.16" ry="45.16"/>
      <g id="_Патапон" data-name="Патапон">
        <circle class="cls-14" cx="202.96" cy="218.47" r="86"/>
        <path class="cls-14" d="M366.96,214.13L9.54,207.07l-.24,8.47,357.88,6.59s5.18,8.12,11.88-.65l33.12,13.47,60.18-12.82-60.94-18.59-32.53,12.76s-4.06-9.65-11.94-2.18Z"/>
        <path class="cls-14" d="M284.66,236.77s25.76,27.18,40.59-10.76l9.71,3.35s-12.18,44.47-54.18,19.41l3.88-12Z"/>
        <circle class="cls-14" cx="332.93" cy="219.21" r="12.97"/>
        <path class="cls-14" d="M117.07,227.89s-28.82,32-42.82-7.53l-10.24,2.94s13.53,46.59,56.94,17.41l-3.88-12.82Z"/>
        <circle class="cls-14" cx="65.72" cy="212.42" r="12.65"/>
        <path class="cls-14" d="M236.25,296.71s13.65,18.47,1.65,46h14s4.47,.12,4.47,5.29c0,0,0,5.18-3.88,5.06h-32.47s22.35-30.47,7.29-53.18l8.94-3.18Z"/>
        <path class="cls-14" d="M168.6,296.71s-13.18,20.71-.47,45.88l-14.94,.12s-4.12,1.29-4.35,5.29c0,0-.47,4.47,4.59,4.47l32.24,.12s-21.41-27.53-7.53-52.94l-9.53-2.94Z"/>
        <polygon class="cls-14" points="155.66 145.19 155.9 126.13 246.72 126.83 246.72 145.66 155.66 145.19"/>
        <path class="cls-14" d="M186.96,127.77c-2.59-75.06-25.18-80.24-25.18-80.24-17.88,5.88,14.82,80.24,14.82,80.24h10.35Z"/>
        <path class="cls-14" d="M207.66,128.24c16.94-102.12-5.41-100.71-5.41-100.71-23.53,5.18-7.76,100-7.76,100l13.18,.71Z"/>
        <path class="cls-14" d="M232.6,127.77c29.41-75.29,9.18-79.06,9.18-79.06-20.24,1.65-20.47,79.29-20.47,79.29l11.29-.24Z"/>
        <path class="cls-1" d="M142.72,218.13l20.94,.47s-.71,28,24.47,36.94c0,0,23.06,7.76,37.41-6.59,0,0,13.41-8.71,13.18-28.47l20,.24s2.35,24.94-21.18,43.53c0,0-23.76,24.24-63.29,7.06,0,0-29.18-11.53-31.53-53.18Z"/>
      </g>
      <g id="You_have_a_point-2" data-name="You have a point">
        <g>
          <circle class="cls-14" cx="148.69" cy="405.57" r="33.44"/>
          <circle class="cls-16" cx="148.43" cy="405.66" r="26.12"/>
          <circle class="cls-14" cx="148.69" cy="405.39" r="17.74"/>
          <circle class="cls-8" cx="148.6" cy="405.83" r="10.06"/>
        </g>
        <g>
          <polygon class="cls-12" points="89.95 438.24 101.14 404.46 90.18 373.42 106.13 373.42 108.81 381.47 111.22 373.91 127.01 373.14 105.98 438.24 89.95 438.24"/>
          <path class="cls-14" d="M121.43,377.42l-18.35,56.82h-7.59l9.88-29.82-9.53-27h7.41l5.65,16.94,5.29-16.59,7.24-.35m11.17-8.55l-11.56,.56-7.24,.35-4.59,.22-.2-.59h-24.49l3.76,10.66,8.62,24.42-9.02,27.23-3.48,10.52h24.49l1.79-5.54,18.35-56.82,3.56-11.01h0Z"/>
        </g>
        <g>
          <polygon class="cls-15" points="185.94 384.19 202.67 384.19 192.38 415.21 199.97 413 212.56 373.42 228.66 373.42 213.06 424.13 167.7 439.77 185.94 384.19"/>
          <path class="cls-14" d="M223.25,377.42l-13.41,43.59-35.82,12.35,14.82-45.18h8.29l-10.94,33,16.94-4.94,12.35-38.82h7.76m10.83-8h-24.45l-1.77,5.57-1.65,5.19h-23.17l-1.81,5.51-14.82,45.18-5.02,15.31,15.23-5.25,35.82-12.35,3.84-1.33,1.2-3.89,13.41-43.59,3.19-10.35h0Z"/>
        </g>
        <g>
          <polygon class="cls-4" points="254.37 438.48 258.16 426.04 256.3 425.44 252.29 438.16 235.89 436.65 257.73 373.25 273.45 373.79 260.84 410.59 262.63 411.29 275.67 373.6 291.51 373.6 269.9 440.21 254.37 438.48"/>
          <path class="cls-14" d="M260.55,377.35l7.36,.25-12.1,35.31,9.23,3.62,13.48-38.93h7.49l-18.91,58.28-7.5-.84,3.53-11.6-9.44-3.03-4.24,13.48-8.11-.75,19.22-55.78m-5.64-8.2l-1.93,5.59-19.22,55.78-3.32,9.64,10.15,.94,8.11,.75,.45,.04v.03s9.56,1.07,9.56,1.07l7.5,.84,6.48,.72,2.01-6.21,18.91-58.28,3.4-10.47h-24.19l-.06,.16-4.58-.16-7.36-.25-5.91-.2h0Z"/>
        </g>
        <g>
          <polygon class="cls-9" points="298.75 426.77 289.86 423.93 286.36 437.36 270.25 437.07 293.74 367.75 318.13 437.6 302.11 438.19 298.75 426.77"/>
          <path class="cls-14" d="M293.79,378.51l19.47,55.77-8.57,.31-3.12-10.59-14.18-4.52-3.74,14.33-8.57-.16,18.69-55.14m4.83,36.61l-5.14-13.4-4.36,10.28,9.5,3.12m-4.93-58.12l-6.53,19.27-18.69,55.14-3.08,9.07,9.58,.17,8.57,.16,5.51,.1,1.39-5.33,1.87-7.19,3.6,1.15,2.07,7.03,1.53,5.22,5.44-.2,8.57-.31,9.48-.34-3.13-8.96-19.47-55.77-6.71-19.21h0Z"/>
        </g>
        <g>
          <polygon class="cls-11" points="329.36 413.22 392.43 374.96 388.61 393.34 371.09 404.55 382.28 404.49 382.28 420.43 375.99 420.26 392.54 428.78 387.42 442.8 329.36 413.22"/>
          <path class="cls-14" d="M387.37,382.13l-1.88,9.06-26.47,16.94,19.76-.12v8.82l-18-.47,27.41,14.12-2.71,7.41-48.94-24.94,50.82-30.82m10.13-14.33l-13.76,8.34-50.82,30.82-10.74,6.52,11.2,5.71,48.94,24.94,7.04,3.59,2.71-7.43,2.71-7.41,2.12-5.8-5.49-2.83-5.62-2.89v-20.4l-2.62,.02,6.1-3.9,2.48-1.59,.6-2.88,1.88-9.06,3.27-15.75h0Z"/>
        </g>
        <g>
          <polygon class="cls-5" points="296.49 373.06 312.91 372.74 320.57 397.08 328.76 372.85 345.34 372.53 321.09 445.06 296.49 373.06"/>
          <path class="cls-14" d="M339.74,376.64l-18.69,55.92-19-55.61,7.94-.16,10.44,33.18,11.22-33.18,8.1-.16m11.18-8.22l-11.34,.22-8.1,.16-5.62,.11-1.8,5.33-3.36,9.95-3.08-9.79-1.8-5.72-5.99,.12-7.94,.16-10.96,.21,3.54,10.37,19,55.61,7.65,22.4,7.5-22.45,18.69-55.92,3.59-10.75h0Z"/>
        </g>
        <g>
          <polygon class="cls-3" points="128.39 507.72 120.26 505.13 116.79 518.43 99.61 518.12 123.79 446.78 148.88 518.64 131.79 519.26 128.39 507.72"/>
          <path class="cls-14" d="M123.84,459.07l19.47,55.77-8.57,.31-3.12-10.59-14.18-4.52-3.74,14.33-8.57-.16,18.69-55.14m4.83,36.61l-5.14-13.4-4.36,10.28,9.5,3.12m-4.94-61.2l-7.46,22.02-18.69,55.14-3.51,10.37,10.95,.2,8.57,.16,6.3,.11,1.59-6.09,1.61-6.17,2.09,.67,1.92,6.52,1.75,5.96,6.21-.23,8.57-.31,10.84-.39-3.57-10.24-19.47-55.77-7.66-21.95h0Z"/>
        </g>
        <g>
          <path class="cls-16" d="M161.17,452.65l66.07,22.44-35.67,21.53,8,21.88-16.31,.4-22.08-66.25Zm26.44,28.6l3.9-2.38-5.23-1.76,1.33,4.14Z"/>
          <path class="cls-14" d="M167.51,459.03l50.3,17.08-31.13,18.79,7.21,19.74-7.78,.19-18.6-55.8m17.84,28.28l15.56-9.49-20.88-7.02,5.31,16.51m-30.53-41.04l5.1,15.29,18.6,55.8,1.87,5.61,5.91-.14,7.78-.19,11.15-.27-3.83-10.47-4.95-13.55,25.49-15.38,14.73-8.89-16.29-5.53-50.3-17.08-15.26-5.18h0Z"/>
        </g>
        <g>
          <circle class="cls-14" cx="250.07" cy="487.21" r="33.44"/>
          <circle class="cls-7" cx="249.81" cy="487.3" r="26.12"/>
          <circle class="cls-14" cx="250.07" cy="487.04" r="17.74"/>
          <circle class="cls-10" cx="249.99" cy="487.48" r="10.06"/>
        </g>
        <g>
          <g>
            <polygon class="cls-13" points="286.03 472.69 291.43 454.89 306.11 455.11 300.91 473.15 286.03 472.69"/>
            <path class="cls-14" d="M294.01,458.43l7.47,.12-3.18,11.02-7.59-.23,3.31-10.91m-5.17-7.08l-1.53,5.05-3.31,10.91-2.65,8.75,9.14,.28,7.59,.23,5.43,.17,1.51-5.22,3.18-11.02,2.54-8.8-9.16-.14-7.47-.12-5.28-.08h0Z"/>
          </g>
          <g>
            <polygon class="cls-13" points="270.76 518.63 285.51 474.8 300.52 474.8 287.13 518.84 270.76 518.63"/>
            <path class="cls-14" d="M295.8,478.3l-11.25,37.01-8.93-.12,12.41-36.9h7.77m9.44-7h-22.25l-1.6,4.77-12.41,36.9-3.06,9.11,9.61,.12,8.93,.12,5.26,.07,1.53-5.03,11.25-37.01,2.75-9.04h0Z"/>
          </g>
        </g>
        <g>
          <polygon class="cls-2" points="339.09 518.69 351.54 479.68 341.44 482.75 338.79 469.17 384.02 453.52 381.9 469.01 368.57 473.91 354.36 518.86 339.09 518.69"/>
          <path class="cls-14" d="M379.78,458.69l-1.06,7.76-12.97,4.76-13.94,44.12-7.94-.09,13.03-40.85-12.76,3.88-1.32-6.79,36.97-12.79m8.47-10.34l-10.76,3.72-36.97,12.79-5.74,1.99,1.16,5.97,1.32,6.79,1.48,7.62,7.42-2.26h0s-8.98,28.15-8.98,28.15l-2.88,9.02,9.47,.11,7.94,.09,5.19,.06,1.56-4.95,12.91-40.84,9.74-3.58,3.95-1.45,.57-4.17,1.06-7.76,1.54-11.29h0Z"/>
        </g>
        <g>
          <polygon class="cls-6" points="310.94 494.01 303.5 518.83 288.1 518.83 309.99 449.25 321.1 479.5 328.38 454.89 343.56 455.06 322.19 524.6 310.94 494.01"/>
          <path class="cls-14" d="M330.98,458.42l7.85,.09-16.94,55.15-11.29-30.71-9.71,32.38h-8.03l17.38-55.24,11.21,30.53,9.53-32.21m-21.24-20.03l-6.17,19.6-17.38,55.24-2.86,9.1h22.78l1.5-4.99,3.68-12.27,4.05,11,7.17,19.48,6.1-19.84,16.94-55.15,2.75-8.95-9.36-.11-7.85-.09-5.29-.06-1.5,5.07-3.53,11.93-3.92-10.68-7.08-19.29h0Z"/>
        </g>
      </g>
    </g>
  </g>
</svg>