<?xml version="1.0" encoding="UTF-8"?>
<svg id="_Слой_2" data-name="Слой 2" xmlns="http://www.w3.org/2000/svg" viewBox="0 0 1083.38 183.2">
  <g id="_Слой_1-2" data-name="Слой 1">
    <path d="M67.8,56c-1.2,2.67-2.53,5.73-4,9.2-1.2,2.54-2.93,6.34-5.2,11.4h-.8c-1.6,3.33-3.2,6.73-4.8,10.2,2.27-.53,5.03-.97,8.3-1.3,3.27-.33,6.5-.5,9.7-.5,1.73,0,3.43,.07,5.1,.2s3.3,.34,4.9,.6c13.47,1.07,22.2,3.67,26.2,7.8s7.5,8.7,10.5,13.7,4.5,10.5,4.5,16.5c0,7.2-2.17,14.3-6.5,21.3-4.33,7-10.1,13.2-17.3,18.6-7.2,5.4-15.4,9.77-24.6,13.1-9.2,3.33-18.6,5-28.2,5-10.4,0-19.5-1.97-27.3-5.9-7.8-3.94-13.9-9.5-18.3-16.7,1.33-4,3.1-8.96,5.3-14.9,2.2-5.93,4.63-12.2,7.3-18.8,2.67-6.6,5.37-13.17,8.1-19.7,2.73-6.53,5.3-12.4,7.7-17.6,3.6-8,6.93-15.06,10-21.2,.13-.67,.33-1.33,.6-2,1.2-3.6,2.3-7.17,3.3-10.7s1.9-7.3,2.7-11.3h-1c-5.07,0-9.17-1.2-12.3-3.6-3.13-2.4-4.7-5.53-4.7-9.4,0-1.07,.17-2.33,.5-3.8,.33-1.46,.77-2.73,1.3-3.8,2.53,.4,5.03,.67,7.5,.8,2.47,.13,5.7,.2,9.7,.2,8.4,0,16.27-.23,23.6-.7,7.33-.46,13.97-.96,19.9-1.5,5.93-.53,11.03-1.03,15.3-1.5,4.27-.47,7.53-.7,9.8-.7,3.07,0,5.8,1.6,8.2,4.8,2.4,3.2,4.27,7.73,5.6,13.6-4.27-.4-7.7-.67-10.3-.8-2.6-.13-4.9-.2-6.9-.2-6.8,0-13,.27-18.6,.8-5.73,.67-11.07,1.4-16,2.2,.13,.27,.27,.6,.4,1-1.2,1.6-2.67,3.93-4.4,7-1.47,2.53-3.07,5.4-4.8,8.6Zm-13,48.2c-2.53-1.2-4.87-3-7-5.4-3.07,6.8-5.97,13.47-8.7,20-2.73,6.53-5.17,12.6-7.3,18.2-2.13,5.6-3.87,10.47-5.2,14.6s-2.07,7.13-2.2,9c1.87,1.07,4.1,1.87,6.7,2.4,2.6,.54,5.83,.8,9.7,.8,9.07,0,17.73-1.27,26-3.8,8.27-2.53,15.53-5.96,21.8-10.3,6.27-4.33,11.27-9.3,15-14.9,3.73-5.6,5.6-11.47,5.6-17.6,0-8.8-5.07-14-15.2-15.6-10.13-1.6-20.6-.6-31.4,3h-4.3c-1,0-2.17-.13-3.5-.4Z"/>
    <path d="M205.2,85.8c1.33,0,2.9,.23,4.7,.7,1.8,.47,3.43,1.07,4.9,1.8s2.7,1.5,3.7,2.3c1,.8,1.5,1.54,1.5,2.2-2.67,5.6-5.13,11.23-7.4,16.9-2.27,5.67-4.2,11.1-5.8,16.3-1.6,5.2-2.83,10.07-3.7,14.6-.87,4.54-1.3,8.47-1.3,11.8,0,3.73,.4,6.83,1.2,9.3s2.13,4.23,4,5.3c-1.6,1.07-3.67,1.93-6.2,2.6-2.53,.67-4.8,1-6.8,1-7.2,0-10.8-4.93-10.8-14.8,0-7.6,2.53-18,7.6-31.2-2.67,6.11-5.73,11.85-9.2,17.22-3.47,5.38-7,10.12-10.6,14.24-3.6,4.12-7.23,7.47-10.9,10.05-3.67,2.59-7.03,4.15-10.1,4.68-4.93,0-8.93-2.24-12-6.73-3.07-4.48-4.6-10.21-4.6-17.17,0-7.5,1.6-15.4,4.8-23.7,3.2-8.3,7.3-16,12.3-23.1,5-7.1,10.43-13.02,16.3-17.77,5.87-4.75,11.53-7.13,17-7.13,1.33,.4,2.83,1.2,4.5,2.4,1.67,1.2,3.27,2.59,4.8,4.19,1.53,1.6,2.83,3.22,3.9,4.89,1.07,1.66,1.67,3.09,1.8,4.29-5.33,.8-10.83,3.39-16.5,7.78-5.67,4.39-10.8,9.68-15.4,15.86-4.6,6.19-8.37,12.8-11.3,19.85-2.93,7.05-4.4,13.63-4.4,19.75,0,2.53,.93,4.12,2.8,4.79,3.87-.8,8.33-4.1,13.4-9.9,5.07-5.8,11.2-14.77,18.4-26.9,1.33-2.4,2.83-5.06,4.5-8,1.67-2.93,3.37-6,5.1-9.2,1.73-3.2,3.43-6.43,5.1-9.7,1.67-3.27,3.23-6.43,4.7-9.5h0Z"/>
    <path d="M284.6,162.2c-2.53-2.13-4.23-4.8-5.1-8-.87-3.2-1.3-5.93-1.3-8.2,0-2.8,.33-5.2,1-7.2-.54,0-1.73,1.06-3.6,3.19s-3.9,4.65-6.1,7.58c-2.2,2.93-4.37,5.78-6.5,8.57s-3.73,4.85-4.8,6.18c-1.73,1.86-3.37,3.32-4.9,4.39-1.53,1.06-2.77,1.66-3.7,1.79-2.13,0-4.37-.37-6.7-1.11-2.33-.74-4.53-1.78-6.6-3.12-2.07-1.34-3.87-2.95-5.4-4.83-1.53-1.88-2.57-4.03-3.1-6.44,0-3.73,.1-6.8,.3-9.2,.2-2.4,.63-5,1.3-7.8,1.2-5.07,2.97-10.8,5.3-17.2s5.03-12.7,8.1-18.9c3.07-6.2,6.5-12,10.3-17.4,3.8-5.4,7.83-9.63,12.1-12.7,1.2,0,2.6,.1,4.2,.3,1.6,.2,3.23,.57,4.9,1.1,1.67,.54,3.27,1.17,4.8,1.9,1.53,.73,2.83,1.7,3.9,2.9-1.2,1.33-4.23,5.8-9.1,13.4s-10.3,18.53-16.3,32.8c-.67,1.47-1.47,3.6-2.4,6.4-.93,2.8-1.87,5.73-2.8,8.8-.93,3.07-1.7,6.07-2.3,9-.6,2.93-.9,5.27-.9,7,0,1.07,.17,1.87,.5,2.4s.63,.93,.9,1.2c2-.8,4.53-3,7.6-6.6,3.07-3.6,7.33-9.13,12.8-16.6,1.33-1.87,2.9-4,4.7-6.4,1.8-2.4,3.63-4.97,5.5-7.7,1.87-2.73,3.63-5.56,5.3-8.5,1.67-2.93,3.03-5.87,4.1-8.8,.53-1.6,1.23-3.5,2.1-5.7,.87-2.2,1.93-4.5,3.2-6.9,1.27-2.4,2.73-4.83,4.4-7.3,1.67-2.46,3.63-4.77,5.9-6.9,1.73,0,3.6,.2,5.6,.6s3.9,.9,5.7,1.5,3.37,1.27,4.7,2c1.33,.73,2.33,1.5,3,2.3-2.4,5.87-5.07,11.67-8,17.4-2.93,5.73-5.67,11.37-8.2,16.9s-4.67,11.03-6.4,16.5c-1.73,5.47-2.6,10.8-2.6,16,0,2.8,.23,5.23,.7,7.3,.46,2.07,.96,3.8,1.5,5.2,.53,1.4,1.03,2.57,1.5,3.5,.46,.93,.7,1.73,.7,2.4,0,.13-.13,.33-.4,.6-.13,.13-.27,.2-.4,.2-.93,0-2.13-.2-3.6-.6s-3.1-.97-4.9-1.7c-1.8-.73-3.6-1.56-5.4-2.5-1.8-.93-3.5-1.93-5.1-3Zm24.8-100.4c-2.67-.27-5.47-.97-8.4-2.1-2.93-1.13-5.7-2.87-8.3-5.2-2.6-2.33-4.93-5.27-7-8.8-2.07-3.53-3.57-7.83-4.5-12.9,1.07-2.27,3.03-3.73,5.9-4.4,2.87-.67,5.5-1.27,7.9-1.8,1.87,8.54,4.57,14.54,8.1,18,3.53,3.47,7.37,5.47,11.5,6,5.07-1.2,9.23-3.56,12.5-7.1,3.27-3.53,6.03-7.9,8.3-13.1,1.33,.4,2.4,1.67,3.2,3.8-1.33,6.54-4.6,12.3-9.8,17.3-5.2,5-11.67,8.43-19.4,10.3Z"/>
    <path d="M358.19,127.2c-1.2,1.47-2.27,3-3.2,4.6-3.2,5.2-5.9,11.13-8.1,17.8-2.2,6.67-4.3,14.6-6.3,23.8-1.2-.13-2.63-.57-4.3-1.3-1.67-.73-3.33-1.63-5-2.7-1.67-1.07-3.17-2.2-4.5-3.4-1.33-1.2-2.2-2.33-2.6-3.4,.67-3.87,1.83-8.96,3.5-15.3,1.67-6.33,3.63-13.07,5.9-20.2s4.67-14.3,7.2-21.5c2.53-7.2,5-13.67,7.4-19.4,1.73-4.13,3.27-7.37,4.6-9.7,1.33-2.33,2.8-4.3,4.4-5.9,1.87,.27,3.8,.73,5.8,1.4,2,.67,3.93,1.47,5.8,2.4,1.87,.93,3.53,1.9,5,2.9s2.6,1.97,3.4,2.9c-3.6,4.27-6.77,9.13-9.5,14.6s-5.5,12.47-8.3,21c7.2-6.4,13.57-12.53,19.1-18.4s10.7-12.4,15.5-19.6c.8-.67,2.2-1,4.2-1,1.87,0,3.67,.3,5.4,.9s2.93,1.44,3.6,2.5c-2.4,6.4-3.6,12.73-3.6,19,0,5.87,.87,10.27,2.6,13.2-.13,.8-1.03,2.33-2.7,4.6-1.67,2.27-3.5,4.4-5.5,6.4-3.6-1.87-6.8-4.43-9.6-7.7-2.8-3.27-4.87-6.83-6.2-10.7-6,4.13-11.13,8.2-15.4,12.2h.4c2.67,.13,5.27,.7,7.8,1.7s4.77,2.33,6.7,4c1.93,1.67,3.5,3.63,4.7,5.9,1.2,2.27,1.8,4.87,1.8,7.8,0,1.2-.07,2.4-.2,3.6-.13,9.47-.2,16.13-.2,20-.27,3.2,.23,5.4,1.5,6.6,1.27,1.2,2.57,1.8,3.9,1.8,1.2,0,2.47-.33,3.8-1,1.33-.67,2.4-1,3.2-1,.53,.27,.93,.83,1.2,1.7,.27,.87,.4,1.63,.4,2.3-.93,.93-2,1.87-3.2,2.8-1.2,.93-2.5,1.8-3.9,2.6-1.4,.8-2.73,1.46-4,2-1.27,.53-2.43,.8-3.5,.8-3.2,0-5.6-.44-7.2-1.3-1.6-.87-2.93-2.4-4-4.6-1.07-2.2-1.77-5.2-2.1-9-.33-3.8-.23-9.17,.3-16.1s.8-11.47,.8-13.6c0-3.46-.73-5.9-2.2-7.3s-3.33-2.1-5.6-2.1c-1.73,0-3.6,.33-5.6,1-1.2,.4-2.33,.87-3.4,1.4Z"/>
    <path d="M442.79,173.6c-7.6-.8-13.67-4.13-18.2-10s-6.8-13.33-6.8-22.4c0-5.33,.8-10.87,2.4-16.6,1.6-5.73,3.87-11.3,6.8-16.7,2.93-5.4,6.4-10.5,10.4-15.3,4-4.8,8.33-8.93,13-12.4,7.33-5.46,14.2-8.2,20.6-8.2,4.27,2.27,8.47,7,12.6,14.2,.67,0,1.27-.03,1.8-.1,.53-.06,1.13-.1,1.8-.1,7.07,0,10.6,6.27,10.6,18.8,0,8.4-1.37,16.37-4.1,23.9-2.73,7.54-6.54,14.37-11.4,20.5-4.87,6.13-10.67,11.3-17.4,15.5-6.73,4.2-14.1,7.17-22.1,8.9Zm10.2-63c-2.27,3.07-4.4,6.4-6.4,10-2,3.6-3.73,7.23-5.2,10.9-1.47,3.67-2.6,7.2-3.4,10.6-.8,3.4-1.2,6.44-1.2,9.1,0,3.2,.53,6.27,1.6,9.2,1.07,2.93,2.27,4.6,3.6,5,6-1.33,11.5-3.83,16.5-7.5,5-3.67,9.33-8.23,13-13.7,3.67-5.46,6.53-11.66,8.6-18.6,2.07-6.93,3.1-14.33,3.1-22.2,0-3.47-.2-6.2-.6-8.2s-1.07-3.73-2-5.2c-5.87,1.73-11.1,4.54-15.7,8.4-4.6,3.87-8.57,7.93-11.9,12.2Z"/>
    <path d="M575.39,59c-4.54,2.13-12.47,3.87-23.8,5.2-9.07,17.2-16.6,37-22.6,59.4,3.73-6.93,7.93-13.63,12.6-20.1,4.67-6.46,9.3-12.17,13.9-17.1,4.6-4.93,9-8.87,13.2-11.8,4.2-2.93,7.7-4.4,10.5-4.4,2.13,.54,4.2,1.47,6.2,2.8,2,1.33,3.8,2.97,5.4,4.9,1.6,1.93,2.93,4,4,6.2,1.07,2.2,1.73,4.5,2,6.9-.13,5.6-1.1,11.57-2.9,17.9-1.8,6.33-4.2,12.57-7.2,18.7s-6.4,12-10.2,17.6-7.8,10.5-12,14.7c-4.2,4.2-8.4,7.56-12.6,10.1-4.2,2.53-8.17,3.8-11.9,3.8-1.6,0-3.23-.17-4.9-.5-1.67-.34-3.2-.8-4.6-1.4-1.4-.6-2.53-1.23-3.4-1.9-.87-.67-1.3-1.33-1.3-2,6.13-4.13,12.13-9.43,18-15.9,5.87-6.46,11.2-13.46,16-21,4.8-7.53,8.87-15.37,12.2-23.5s5.6-15.93,6.8-23.4c0-1.6-.87-2.66-2.6-3.2-1.87,0-4.43,1.63-7.7,4.9-3.27,3.27-6.87,7.43-10.8,12.5-3.93,5.07-7.93,10.73-12,17-4.07,6.27-7.77,12.5-11.1,18.7-3.33,6.2-6.17,12-8.5,17.4-2.33,5.4-3.63,9.77-3.9,13.1-1.33,0-2.47-1.33-3.4-4-.27-.67-.73-1.37-1.4-2.1-.67-.73-1.73-1.63-3.2-2.7-.67-.53-1.33-1.17-2-1.9-.67-.73-1.13-1.37-1.4-1.9-.53-1.07-.8-2.8-.8-5.2,0-7.87,1-16.73,3-26.6s4.63-19.93,7.9-30.2c3.27-10.27,7.1-20.37,11.5-30.3,4.4-9.93,8.96-19.03,13.7-27.3,4.73-8.27,9.5-15.27,14.3-21,4.8-5.73,9.33-9.53,13.6-11.4,1.33,.4,2.93,1.07,4.8,2,1.87,.93,3.73,2,5.6,3.2s3.63,2.4,5.3,3.6,2.9,2.27,3.7,3.2c3.6,3.73,5.4,8.4,5.4,14,0,4.27-.87,8.57-2.6,12.9-1.73,4.33-4.27,7.97-7.6,10.9-4.13,4-8.53,7.07-13.2,9.2Zm-2-15c8.67-9.2,13-17.33,13-24.4,0-.53-.13-.93-.4-1.2-10.53,9.87-19.93,21.6-28.2,35.2,3.73-1.6,6.73-3.13,9-4.6,2.4-1.6,4.6-3.27,6.6-5Z"/>
    <path d="M770.99,25.4c2.93-.93,5.5-.97,7.7-.1s4.43,1.9,6.7,3.1c2.27,1.2,4.33,2.5,6.2,3.9,1.87,1.4,3.13,2.7,3.8,3.9-2.4,2.27-4.8,5.2-7.2,8.8s-4.77,7.73-7.1,12.4c-2.33,4.67-4.63,9.73-6.9,15.2-2.27,5.47-4.4,11.13-6.4,17-5.6,17.33-9.33,29.54-11.2,36.6-1.87,7.07-3.43,13.8-4.7,20.2-1.27,6.4-2.27,12.27-3,17.6-.73,5.33-1.1,9.8-1.1,13.4,0,1.33,.03,2.4,.1,3.2,.07,.8,.17,1.47,.3,2-2.93-.13-5.07-.63-6.4-1.5-1.33-.87-2.33-1.8-3-2.8-.67-1-1.27-2-1.8-3-.53-1-1.4-1.77-2.6-2.3-.93-.4-1.8-1.33-2.6-2.8-.8-1.47-1.47-3.13-2-5-.53-1.87-.93-3.73-1.2-5.6-.27-1.87-.4-3.4-.4-4.6,0-5.6,.93-12.8,2.8-21.6,1.87-8.8,5.2-20.67,10-35.6s8.53-25.73,11.2-32.4c2.13-5.47,4.27-10.6,6.4-15.4-2.93,1.87-6.4,4.67-10.4,8.4-5.33,5.07-10.97,11.27-16.9,18.6-5.93,7.33-12.07,15.47-18.4,24.4-6.33,8.93-12.23,18.1-17.7,27.5-5.47,9.4-10.43,18.8-14.9,28.2-4.47,9.4-7.9,18.03-10.3,25.9-.27,.13-.53,.2-.8,.2s-.73-.07-1.4-.2c-1.6,0-3.33-.4-5.2-1.2-3.47-1.34-6.47-3.13-9-5.4-3.33-2.94-6.4-6.67-9.2-11.2,1.07-2.13,2.3-4.87,3.7-8.2,1.4-3.33,3.07-7.37,5-12.1,1.93-4.73,4.13-10.27,6.6-16.6,2.47-6.33,5.3-13.7,8.5-22.1l7-17.8c2.8-7.2,5.1-13.27,6.9-18.2,1.8-4.93,3.33-9.77,4.6-14.5,1.27-4.73,2.47-9.96,3.6-15.7,1.13-5.73,2.5-13,4.1-21.8,5.6,1.07,10.7,3.53,15.3,7.4,4.6,3.87,8.57,8.54,11.9,14-1.2,1.6-2.67,4-4.4,7.2s-3.63,7.03-5.7,11.5-4.3,9.47-6.7,15c-2.4,5.53-7.13,16.43-14.2,32.7-2,4.54-3.8,8.8-5.4,12.8,23.33-27.2,37.8-44.2,43.4-51,5.73-7.07,11.27-13.5,16.6-19.3s10.23-10.87,14.7-15.2c4.46-4.33,8.17-6.97,11.1-7.9Z"/>
    <path d="M852.38,59c-4.54,2.13-12.47,3.87-23.8,5.2-9.07,17.2-16.6,37-22.6,59.4,3.73-6.93,7.93-13.63,12.6-20.1,4.67-6.46,9.3-12.17,13.9-17.1,4.6-4.93,9-8.87,13.2-11.8,4.2-2.93,7.7-4.4,10.5-4.4,2.13,.54,4.2,1.47,6.2,2.8,2,1.33,3.8,2.97,5.4,4.9,1.6,1.93,2.93,4,4,6.2,1.07,2.2,1.73,4.5,2,6.9-.13,5.6-1.1,11.57-2.9,17.9-1.8,6.33-4.2,12.57-7.2,18.7s-6.4,12-10.2,17.6c-3.8,5.6-7.8,10.5-12,14.7-4.2,4.2-8.4,7.56-12.6,10.1-4.2,2.53-8.17,3.8-11.9,3.8-1.6,0-3.23-.17-4.9-.5-1.67-.34-3.2-.8-4.6-1.4-1.4-.6-2.53-1.23-3.4-1.9-.87-.67-1.3-1.33-1.3-2,6.13-4.13,12.13-9.43,18-15.9,5.87-6.46,11.2-13.46,16-21,4.8-7.53,8.87-15.37,12.2-23.5,3.33-8.13,5.6-15.93,6.8-23.4,0-1.6-.87-2.66-2.6-3.2-1.87,0-4.43,1.63-7.7,4.9-3.27,3.27-6.87,7.43-10.8,12.5-3.93,5.07-7.93,10.73-12,17-4.07,6.27-7.77,12.5-11.1,18.7-3.33,6.2-6.17,12-8.5,17.4-2.33,5.4-3.63,9.77-3.9,13.1-1.33,0-2.47-1.33-3.4-4-.27-.67-.73-1.37-1.4-2.1-.67-.73-1.73-1.63-3.2-2.7-.67-.53-1.33-1.17-2-1.9-.67-.73-1.13-1.37-1.4-1.9-.53-1.07-.8-2.8-.8-5.2,0-7.87,1-16.73,3-26.6s4.63-19.93,7.9-30.2c3.27-10.27,7.1-20.37,11.5-30.3s8.96-19.03,13.7-27.3c4.73-8.27,9.5-15.27,14.3-21,4.8-5.73,9.33-9.53,13.6-11.4,1.33,.4,2.93,1.07,4.8,2,1.87,.93,3.73,2,5.6,3.2s3.63,2.4,5.3,3.6,2.9,2.27,3.7,3.2c3.6,3.73,5.4,8.4,5.4,14,0,4.27-.87,8.57-2.6,12.9-1.73,4.33-4.27,7.97-7.6,10.9-4.13,4-8.53,7.07-13.2,9.2Zm-2-15c8.67-9.2,13-17.33,13-24.4,0-.53-.13-.93-.4-1.2-10.53,9.87-19.93,21.6-28.2,35.2,3.73-1.6,6.73-3.13,9-4.6,2.4-1.6,4.6-3.27,6.6-5Z"/>
    <path d="M947.78,85.8c1.33,0,2.9,.23,4.7,.7,1.8,.47,3.43,1.07,4.9,1.8,1.47,.73,2.7,1.5,3.7,2.3,1,.8,1.5,1.54,1.5,2.2-2.67,5.6-5.13,11.23-7.4,16.9-2.27,5.67-4.2,11.1-5.8,16.3-1.6,5.2-2.83,10.07-3.7,14.6-.87,4.54-1.3,8.47-1.3,11.8,0,3.73,.4,6.83,1.2,9.3s2.13,4.23,4,5.3c-1.6,1.07-3.67,1.93-6.2,2.6-2.53,.67-4.8,1-6.8,1-7.2,0-10.8-4.93-10.8-14.8,0-7.6,2.53-18,7.6-31.2-2.67,6.11-5.73,11.85-9.2,17.22-3.47,5.38-7,10.12-10.6,14.24-3.6,4.12-7.23,7.47-10.9,10.05-3.67,2.59-7.03,4.15-10.1,4.68-4.93,0-8.93-2.24-12-6.73-3.07-4.48-4.6-10.21-4.6-17.17,0-7.5,1.6-15.4,4.8-23.7,3.2-8.3,7.3-16,12.3-23.1,5-7.1,10.43-13.02,16.3-17.77s11.53-7.13,17-7.13c1.33,.4,2.83,1.2,4.5,2.4,1.67,1.2,3.27,2.59,4.8,4.19,1.53,1.6,2.83,3.22,3.9,4.89,1.07,1.66,1.67,3.09,1.8,4.29-5.33,.8-10.83,3.39-16.5,7.78-5.67,4.39-10.8,9.68-15.4,15.86-4.6,6.19-8.37,12.8-11.3,19.85-2.93,7.05-4.4,13.63-4.4,19.75,0,2.53,.93,4.12,2.8,4.79,3.87-.8,8.33-4.1,13.4-9.9,5.07-5.8,11.2-14.77,18.4-26.9,1.33-2.4,2.83-5.06,4.5-8,1.67-2.93,3.37-6,5.1-9.2,1.73-3.2,3.43-6.43,5.1-9.7,1.67-3.27,3.23-6.43,4.7-9.5h0Z"/>
    <path d="M1049.68,114.1c1.93-3.8,3.43-6.77,4.5-8.9,7.33-16,12.93-24,16.8-24,2.67,0,5.17,.7,7.5,2.1,2.33,1.4,3.97,3.43,4.9,6.1-1.2,4-3.17,8.8-5.9,14.4s-5.5,11.5-8.3,17.7c-2.8,6.2-5.3,12.3-7.5,18.3-2.2,6-3.3,11.4-3.3,16.2,0,2.8,.4,4.63,1.2,5.5,.8,.87,1.93,1.3,3.4,1.3,1.6,0,3.1-.3,4.5-.9s2.43-.9,3.1-.9c.8,.54,1.27,1.2,1.4,2,.13,.8,.2,1.54,.2,2.2-2.67,2.13-5.4,3.9-8.2,5.3-2.8,1.4-5.93,2.1-9.4,2.1-3.2,0-5.83-.53-7.9-1.6-2.07-1.07-3.77-2.54-5.1-4.4-1.33-1.87-2.27-4-2.8-6.4-.54-2.4-.8-5-.8-7.8,0-4.53,.6-9.07,1.8-13.6,.27-1.07,.6-2.13,1-3.2-4.67,3.6-10.2,6.2-16.6,7.8-2.67-.27-5.47-.97-8.4-2.1-2.93-1.13-5.67-2.9-8.2-5.3-2.53-2.13-4.87-4.93-7-8.4-2.53,5.2-5,10.67-7.4,16.4-4.4,15.07-7.7,24.03-9.9,26.9-2.2,2.87-4.1,4.77-5.7,5.7-2.8-1.6-4.87-3.83-6.2-6.7s-2.33-5.83-3-8.9c0-2.53,.37-5.73,1.1-9.6,.73-3.87,1.73-8.17,3-12.9,1.27-4.73,2.83-9.7,4.7-14.9,1.87-5.2,3.93-10.4,6.2-15.6,5.07-11.73,9.7-20.93,13.9-27.6,4.2-6.67,6.83-10.27,7.9-10.8,3.47,1.07,6.73,3.44,9.8,7.1,3.07,3.67,5.33,7.7,6.8,12.1-1.47,3.6-5.27,10.53-11.4,20.8,0,.13-.07,.27-.2,.4,1.87,7.6,4.47,13,7.8,16.2,3.47,3.47,7.27,5.47,11.4,6,5.07-1.2,9.23-3.56,12.5-7.1,3.27-3.53,5.87-7.2,7.8-11Z"/>
  </g>
</svg>