<?xml version="1.0" encoding="UTF-8"?>
<svg id="_Слой_2" data-name="Слой 2" xmlns="http://www.w3.org/2000/svg" xmlns:xlink="http://www.w3.org/1999/xlink" viewBox="0 0 2388.25 1127.61">
  <defs>
    <style>
      .cls-1 {
        fill: #fbb777;
      }

      .cls-2 {
        fill: #e29f4c;
      }

      .cls-3 {
        fill: #fff;
      }

      .cls-4 {
        fill: #fabc82;
      }

      .cls-5 {
        fill: #fcc18b;
      }

      .cls-6 {
        fill: #86b6dd;
      }

      .cls-7 {
        fill: #d29947;
      }

      .cls-8 {
        fill: #faaa5a;
      }

      .cls-9 {
        fill: #dd7b26;
      }

      .cls-10 {
        fill: #d09149;
      }

      .cls-11 {
        fill: #f6c976;
      }

      .cls-12 {
        fill: #613a15;
      }

      .cls-13 {
        fill: #573513;
      }

      .cls-14 {
        fill: #e62525;
      }

      .cls-15 {
        clip-path: url(#clippath);
      }

      .cls-16 {
        fill: none;
      }

      .cls-17 {
        fill: #e32026;
      }

      .cls-18 {
        fill: #e52025;
      }

      .cls-19 {
        fill: #f7ba7b;
      }

      .cls-20 {
        fill: #f5cb77;
      }

      .cls-21 {
        fill: #231f20;
      }

      .cls-22 {
        fill: url(#_Безымянный_градиент_16);
      }

      .cls-23 {
        fill: #cf893f;
      }
    </style>
    <clipPath id="clippath">
      <rect class="cls-16" width="2388.25" height="1127.61"/>
    </clipPath>
    <linearGradient id="_Безымянный_градиент_16" data-name="Безымянный градиент 16" x1="1194.13" y1="1647.49" x2="1194.13" y2="-412.29" gradientUnits="userSpaceOnUse">
      <stop offset="0" stop-color="#fff"/>
      <stop offset=".2" stop-color="#fdcfa1"/>
      <stop offset=".68" stop-color="#faa655"/>
    </linearGradient>
  </defs>
  <g id="_2_страница" data-name="2 страница">
    <g class="cls-15">
      <g>
        <rect class="cls-22" y="-412.29" width="2388.26" height="2059.78"/>
        <path class="cls-5" d="M693.06,545.23s68.64,24.29,156.81,17.42c0,0,196.94-9.5,235.49-3.17,0,0,102.96,3.17,152.06,13.73,0,0-159.98-42.24-356.92-26.4,0,0-139.92,11.09-187.44-1.58Z"/>
        <path class="cls-4" d="M1337.23,467.68s117.45,29.36,182.99,26.74c0,0,858.61,11.01,926.25,2.62l-.52-14.16s-903.7,5.77-931.49-.52c0,0-163.59-11.01-177.22-14.68Z"/>
        <path class="cls-1" d="M1164.35,210.05s-140.05-22.8-238.3-16.28c0,0-137.88,1.63-165.56,8.14,0,0-725.03,11.4-754.89,4.89l-.54-17.37s707.66-.54,732.09-6.51c0,0,271.96-20.08,427.2,27.14Z"/>
        <path class="cls-19" d="M706.98,396.64s-45.35,1.31-53.74,3.93c0,0-615.03,4.72-621.06,2.62l-.52-9.7s607.17,3.15,618.96,1.84c0,0,40.11-2.36,56.37,1.31Z"/>
        <circle class="cls-9" cx="817.5" cy="826.96" r="60.61"/>
        <circle class="cls-9" cx="784.06" cy="880.6" r="25.08"/>
        <circle class="cls-9" cx="1025.42" cy="931.97" r="34.37"/>
        <circle class="cls-9" cx="1008.48" cy="961.67" r="10.06"/>
        <path class="cls-9" d="M1030.62,965.28l8.26,70.79-4.33,.39-5.9-54.14s-15.86-3.93-16.52-11.8l2.49-2.23s.79,6.82,12.85,9.31l-.79-11.93,3.93-.39Z"/>
        <circle class="cls-9" cx="862.07" cy="971.61" r="20.44"/>
        <path class="cls-13" d="M866.55,972.09l-2.1-3.67-13.46,7.34,9.79-15.9-2.62-1.22-12.41,19.58-10.87,5.36-13.6-124.2,13.81-12.41-3.5-2.97-11.19,9.44-2.45-28.66-5.24,.17,8.04,74.8s-31.98,9.79-35.13-20.45h-4.89s.17,33.73,40.72,25.52l14.68,143.67,5.77-.7-6.56-59.91,31.2-15.77Z"/>
        <path class="cls-8" d="M694.79,1033.99c0-5.96-4.84-10.8-10.8-10.8s-10.8,4.84-10.8,10.8,4.5,10.4,10.16,10.74l.83,19.48,2.71-.26-1.11-19.33c5.11-.85,9.02-5.27,9.02-10.62Z"/>
        <path class="cls-8" d="M1113.75,1007.19c0-5.96-4.84-10.8-10.8-10.8s-10.8,4.84-10.8,10.8,4.5,10.4,10.16,10.74l.83,19.48,2.71-.26-1.11-19.33c5.11-.85,9.02-5.27,9.02-10.62Z"/>
        <path class="cls-8" d="M1265.92,1004.78c0-7.92-6.42-14.33-14.33-14.33s-14.33,6.42-14.33,14.33,5.85,13.66,13.25,14.22l-.32,13.57,2.97-.17-.48-13.39c7.4-.57,13.24-6.68,13.24-14.22Z"/>
        <path class="cls-8" d="M1560.07,1013.52c0-6.01-4.87-10.88-10.88-10.88s-10.88,4.87-10.88,10.88c0,5.11,3.54,9.37,8.29,10.53-.45,3.18-2.16,16.27-.55,19.48l1.57-.39c-.91-8.41,1.23-16.7,1.82-18.77,5.89-.13,10.63-4.93,10.63-10.86Z"/>
        <path class="cls-12" d="M1821.45,908.91h4.72s1.05,20.97,6.29,18.35l.52,17.04s-11.01-12.06-11.54-35.39Z"/>
        <path class="cls-9" d="M1712.78,933.55c-18.75,0-33.95,15.2-33.95,33.95,0,16.47,11.73,30.2,27.3,33.29l-6.85,54.67,4.72,.52,5.89-54.68c.96,.08,1.92,.15,2.9,.15,18.75,0,33.95-15.2,33.95-33.95s-15.2-33.95-33.95-33.95Z"/>
        <path class="cls-9" d="M1357.34,965.02c0-16.05-13.01-29.06-29.06-29.06s-29.06,13.01-29.06,29.06,12.34,28.33,27.79,29l1.27,40.02h3.63l-1.29-40.07c14.95-1.19,26.72-13.68,26.72-28.94Z"/>
        <g>
          <circle class="cls-9" cx="1864.55" cy="869.02" r="60.61"/>
          <circle class="cls-9" cx="1831.11" cy="922.67" r="25.08"/>
          <path class="cls-13" d="M1913.6,1014.16l-2.1-3.67-13.46,7.34,9.79-15.9-2.62-1.22-12.41,19.58-10.87,5.36-13.6-124.2,13.81-12.41-3.5-2.97-11.19,9.44-2.45-28.66-5.24,.17,8.04,74.8s-31.98,9.79-35.13-20.45h-4.89s.17,33.73,40.72,25.52l14.68,143.67,5.77-.7-6.56-59.91,31.2-15.77Z"/>
        </g>
        <path class="cls-21" d="M55.65,1148.72s649.76-93.78,781.89-101.12c0,0,57.15-4.19,63.97-5.24,0,0,12.06-37.23,17.3-38.28,0,0,13.11,3.15,16.25,8.39,0,0,8.39,6.82,17.3,6.29l5.77,20.45s47.71-5.24,51.38-2.62c0,0,2.1-5.77,5.77-5.77,0,0,4.72-4.72,6.82-1.05,0,0,1.57,2.62,1.57,5.77,0,0,27.27-.52,28.84-.52,0,0,16.78-10.49,27.79-1.05,0,0,165.17-5.77,171.46-3.15,0,0,10.49-17.83,25.17,1.57,0,0,264.26,4.19,273.7,9.96,0,0,16.25-25.69,28.31,2.62,0,0,58.2,1.05,65.02,3.67,0,0,15.73-12.58,19.92,3.15l18.35,1.05s7.34-11.01,14.16,1.05c0,0,706.09,84.01,708.19,87.68l-293.12,512.68-1888.67-.52L55.65,1148.72Z"/>
        <path class="cls-21" d="M1689.34,999.41s2.56,23.9,25.92,27.29c0,0,24.56,4.68,33.98-22.87,0,0,2.55-15.84-2.99-21.26,0,0,4.8-6.88,.32-9.11,0,0-4.24-2.14-7.3,.08,0,0-6.18-3.7-7.25-3.82,0,0,3.5-14.64-4.3-16.99,0,0-8.11-5.26-6.46-9.68,0,0-5.18,3.39-.72,8.69,0,0,9.71,6.98,2.45,15.18,0,0-11.33-5.62-14.31-3.65,0,0-8.36,6.68-9.7,11.77,0,0-7.95-2.68-7.11-10.2,0,0,3.1-12.83-4.78-12.69,0,0,5.17,6.4,1.25,11.66,0,0-8.7,9.07,4.52,17.91,0,0-3.33,5.19-2.99,7.28,0,0-4.85-1.25-6.68,3.66,0,0-1.68,5.25,6.15,6.77Z"/>
        <path class="cls-21" d="M1736.8,1020.32l3.04,6.87s3.51-1.91,4.53-.13c0,0,.8,3.1-4.4,3.54,0,0-1.89,.56-3.06-2.68l-3.6-6.1,3.5-1.5Z"/>
        <path class="cls-21" d="M1700.39,1017.8l-9.96,3.84s-4.37-4.43-2.33-6.88c0,0,1.62-1.35,3.47,2.69l7.48-1.69,1.34,2.04Z"/>
        <path class="cls-21" d="M1716.93,1026.35l-18.61,7.89s-.13,2.61-2.31,2.08l-4.47-1.53s-3.23,3.41-5.22-.27l-29.68,3.07s-9.86,3.18-10.84-5.44c0,0-1.53-13.16,11.35-10.18l27.91,9.56s1.67-2.6,4.35-1.17l10.22-12.42,2.44,2.45-8.74,10.31,3.58,.91,15.51-7.09,4.5,1.82Z"/>
        <circle class="cls-3" cx="1729.4" cy="1015.83" r="3.65"/>
        <circle class="cls-3" cx="1722.23" cy="1019.53" r="3.65"/>
        <circle class="cls-3" cx="1713.85" cy="1021.13" r="3.65"/>
        <path class="cls-3" d="M1724.54,993.79l-9.61,6.77s3.75,8.21-2.14,11.23c0,0-7.09,4.26-11.33-2.64,0,0-2.41-5.28-1.97-7.73l-4.31-.21s.15,8.36,5.52,12.22c0,0,10.7,7.07,17.86,.13,0,0,10.11-7.61,5.97-19.78Z"/>
        <polygon class="cls-21" points="1639.64 1016.95 1632.96 1018.98 1638.25 1031.4 1639.64 1016.95"/>
        <polygon class="cls-21" points="1711.92 1039.19 1705.1 1052.83 1696.79 1049.91 1711.92 1039.19"/>
        <polygon class="cls-21" points="1734.21 1034.96 1726.09 1041.34 1722.4 1037.7 1734.21 1034.96"/>
        <circle class="cls-21" cx="1802.86" cy="1044.1" r="13.03"/>
        <path class="cls-3" d="M1810.75,1042.63l-4.99-2.84s-4.68,9.29-10.6,2.86c0,0-5.2-8.76,5.77-9.39l-.1-1.6c-10.43,1.95-9.5,10.52-9.5,10.52,0,0-.13,7.94,8.72,9.46,0,0,10.17,.19,10.69-9.01Z"/>
        <circle class="cls-21" cx="1802.15" cy="1045.33" r="2.27"/>
        <path class="cls-21" d="M1808.39,1055.16c3,5.94,6.34,5.52,6.34,5.52,.81-4.12-3.17-8.28-3.17-8.28l-.61,1.63s2.29,2.73,1.68,3.79c0,0-1.42,.15-2.82-2.73l-1.43,.06Z"/>
        <path class="cls-21" d="M1799.81,1055.97s-2.02,6.33,7.54,6.15l-1.07,4.64-2.01,.03,.99-3.01s-8.48-.43-7.56-8.08l2.1,.26Z"/>
        <polygon class="cls-21" points="1794.89 1053.72 1786.53 1064.08 1783.75 1061.56 1785.6 1061.13 1786.6 1061.57 1793.34 1052.84 1794.89 1053.72"/>
        <polygon class="cls-21" points="1803.9 1046.42 1806.59 1050.38 1805.24 1051.32 1802.44 1047.12 1803.9 1046.42"/>
        <path class="cls-21" d="M1763.57,1035.76l3.45,1.79c.17,2.6,3.01,3.51,3.01,3.51l.92,3.2,1.1-2.88c2.31,.08,4.51-2.92,4.51-2.92l23.83,6.23v-.83s-24.06-6.81-24.06-6.81c.45-.86-.81-3.28-.81-3.28l2.18-3.91c.3,.21,4.04-.21,4.04-.21l2.84,6.43-.88-7.28c.67,.09,2.9-.74,2.9-.74l3.62,5.58-2.09-6.68c.71-.05,2.73-1.77,2.73-1.77l11.58,21.93,1.46-.7-1.94-3.12,.46-.12,3.25-25.7c3.02-.04,3.2-2.11,3.2-2.11l4.19-.89-3.22-1.17c.27-3.92-3.28-4.71-3.28-4.71l-.64-3.44-1.63,3.23c-2.93,.55-3.07,2.48-3.07,2.48l-3.71,1.01,3.14,.73c-.26,.44,0,2.03,0,2.03-6.33-.13-11.61,2.91-11.61,2.91l-5.14-3.68,2.17,5.55c-5.99,2.7-11.58,13.35-11.58,13.35l-1.24-.32-.83-3.8-1.36,3.71c-2.8-.26-3.66,2.51-3.66,2.51l-3.86,.9Zm28.53-11.76c.47,.05,2.23-2.01,2.23-2.01l6.14,2.99-5.1-4.61c.79-1.58,.28-3.86,.28-3.86l5.17-.92c.85,1.96,3.15,1.97,3.15,1.97l-2.53,25.86-9.34-19.43Zm-3.39-4.63c.15-.68,5.79-1.94,5.79-1.94,.51,1.49-3.21,5.59-3.21,5.59l-2.58-3.65Zm-1.83,2.41l1.13-1.11,2.1,3.53-1,.69-2.22-3.11Zm-7.54,6.83s2.76-5.52,5.57-6.44l2.85,3.34s-3.77,3.38-8.42,3.1Z"/>
        <polygon class="cls-21" points="1794.8 1034.2 1789.65 1025.86 1788.36 1026.79 1793.37 1035.33 1794.8 1034.2"/>
        <polygon class="cls-21" points="1818.07 1039.17 1808.52 1029.28 1806.46 1031.83 1815.37 1041.99 1818.07 1039.17"/>
        <path class="cls-21" d="M1814.7,1036.29c7.88-7.55,11.78-5.83,11.78-5.83,1.32,3.59-10.52,7.06-10.52,7.06l-1.26-1.24Z"/>
        <path class="cls-21" d="M1812.15,1033.56c8.37-10.91,12.39-9.67,12.39-9.67,1.83,3.51-10.58,11.87-10.58,11.87l-1.81-2.2Z"/>
        <path class="cls-21" d="M1809.6,1030.83c5.06-11.09,8.64-9.31,8.64-9.31,2.4,2.17-7.04,11.42-7.04,11.42l-1.6-2.1Z"/>
        <circle class="cls-21" cx="1804.99" cy="1012.77" r="1.89"/>
        <circle class="cls-21" cx="1511.56" cy="1016.99" r="13.86"/>
        <polygon class="cls-21" points="1504.75 1005.39 1504.75 1002.07 1519.26 1002.24 1519.17 1005.91 1504.75 1005.39"/>
        <path class="cls-21" d="M1508.77,1002.77c.79-15.29-3.67-14.68-3.67-14.68-3.58,.79,1.4,14.51,1.4,14.51l2.27,.17Z"/>
        <path class="cls-21" d="M1513.23,1002.77c3.23-20.19-1.22-17.3-1.22-17.3-3.15-.26-2.36,17.13-2.36,17.13l3.58,.17Z"/>
        <path class="cls-21" d="M1517.42,1002.85c6.12-14.16,1.57-14.51,1.57-14.51-4.81-1.22-4.98,14.07-4.98,14.07l3.41,.44Z"/>
        <circle class="cls-21" cx="1495.17" cy="1003.21" r="2.75"/>
        <path class="cls-21" d="M1498.66,1013.71s-8-1.11-3.08-8.52l-2.56-1.44s-6.82,11.47,5.31,13.24l.33-3.28Z"/>
        <path class="cls-21" d="M1508.06,1029.75c-.55,4.39-5.94,6.67-5.94,6.67,2.1,2.1,1.01,3.2,1.01,3.2-2.56,.64-4.11-4.94-4.11-4.94,6.12-.73,7.13-5.58,7.13-5.58l1.92,.64Z"/>
        <path class="cls-21" d="M1513.45,1030.54l3.88,8.72s5.78-1.04,5.52-4.06c0,0-1.21-1.38-4.06,.6l-2.85-6.39-2.5,1.12Z"/>
        <path class="cls-21" d="M1524.16,1021.36s7.02,.43,7.23,2.05c0,0,.11,3.78,3.35,3.24,0,0,1.08-1.19,.76-2.27l5.18-2.91s2.7,1.08,3.24,.76c0,0,2.59-.76,1.84-3.67,0,0,5.61-3.89,10.47-3.56,0,0,18.03-4.64,19.54-15.87,0,0-16.95-2.48-23.97,8.96,0,0-2.7,5.18-7.34,7.13,0,0-2.7-1.94-4.75,.43,0,0-1.84,2.05-.76,3.67,0,0,.86,.76-14.47,.32l-.32,1.73Z"/>
        <path class="cls-3" d="M1571.77,1000.85s-17.49,6.15-21.16,12.85c0,0,19-7.13,21.16-12.85Z"/>
        <path class="cls-3" d="M1504.14,1015.44h4.72s1.84,7.43,6.29,7.34c0,0,7.95,1.05,6.47-9.18l2.27-.09s3.23,6.64-3.67,11.97c0,0-8.74,4.02-14.07-2.18,0,0-2.45-2.53-2.01-7.87Z"/>
        <circle class="cls-21" cx="1466.21" cy="1013.52" r="14.33"/>
        <path class="cls-21" d="M1461.53,1026.7s-6.27,7.67-7.15,8.04c0,0-5.53-1.03-5.83-5.01,0,0,.74-1.55,3.1,.22l1.77,1.33,5.68-6.27,2.43,1.7Z"/>
        <path class="cls-21" d="M1467.58,1026.62c1.62,5.38,6.27,6.19,6.27,6.19,1.62,.88,1.33,1.84,1.33,1.84-1.99,4.35-3.91,2.8-3.91,2.8-.22-.88,.29-2.8,.29-2.8-4.5-.52-6.34-7.37-6.34-7.37l2.36-.66Z"/>
        <polygon class="cls-21" points="1463.1 999.65 1464.14 997 1479.25 1002.53 1477.75 1005.65 1463.1 999.65"/>
        <path class="cls-21" d="M1470.47,999.62c3.15-15.86-1.05-14.29-1.05-14.29-3.01-.72-2.03,13.24-2.03,13.24l3.08,1.05Z"/>
        <path class="cls-21" d="M1473.36,1000.87c8.13-14.75,4.59-16.06,4.59-16.06-4.59-1.7-7.41,15.34-7.41,15.34l2.82,.72Z"/>
        <path class="cls-21" d="M1476.76,1002.18c10.16-10.36,6.03-12.52,6.03-12.52-2.88-1.57-8.91,11.6-8.91,11.6l2.88,.92Z"/>
        <path class="cls-21" d="M1452.54,1011.98s-5.99-2.82-6.76-6.42c0,0-4.79,3.25-3.42-2.74,0,0,.34-1.28,1.54-1.2l4.11-8.05-7.45-4.79s-1.37-3.68,2.05-3.08l6.42,3.94,1.2-.6-.43-6.33,19.6-29.7-11.04,34.15-5.22,2.65,.17,1.37,7.79,4.02s.51,2.48-1.63,2.65l-7.7-2.74-4.71,7.1s3.59,7.1,6.33,6.59l-.86,3.17Z"/>
        <path class="cls-3" d="M1452.8,987.15c.87-8.12,13.33-26.96,13.33-26.96,0,0-9.57,24.06-13.33,26.96Z"/>
        <path class="cls-3" d="M1456.91,1005.32l2.29,1.57s-4.52,6.69-.07,8.78c0,0,5.24,3.6,7.41-.46,0,0,1.77-2.49,1.84-6.36l4.39-.26s1.64,7.47-1.57,11.4c0,0-5.44,6.29-12.91,1.77,0,0-9.11-5.83-1.38-16.45Z"/>
        <path class="cls-21" d="M1475.28,1011.08l15.01,2.87s2.77,23.33-12.24,21.99c0,0-13.29-.38-2.77-24.86Z"/>
        <path class="cls-3" d="M1480.26,1014.81l-3.92,18.36s-5.83-3.35,.67-19.13l3.25,.77Z"/>
        <path class="cls-3" d="M1484.51,1015.68l-4.1,18.32s6.7-.61,7.38-17.66l-3.27-.66Z"/>
        <circle class="cls-21" cx="1360.78" cy="995.84" r="13.14"/>
        <polygon class="cls-21" points="1351.84 986.77 1351.38 983.17 1364.16 981.01 1364.69 984.15 1351.84 986.77"/>
        <path class="cls-21" d="M1354.66,983.37c-3.01-14.75-6.42-12.26-6.42-12.26-2.62,2.29,4.46,12.58,4.46,12.58l1.97-.33Z"/>
        <path class="cls-21" d="M1357.87,982.91c.26-18.16-4.39-15.8-4.39-15.8-3.41,.98,2.1,16.06,2.1,16.06l2.29-.26Z"/>
        <path class="cls-21" d="M1361.48,982.19c2.88-15.27-1.31-13.96-1.31-13.96-2.62,.13-1.25,14.35-1.25,14.35l2.56-.39Z"/>
        <circle class="cls-21" cx="1344.63" cy="986.51" r="2.03"/>
        <path class="cls-21" d="M1348.63,1000.34s-12.52-5.24-5.31-13.57l.85,1.25s-4.46,7.14,4.46,9.63v2.69Z"/>
        <path class="cls-21" d="M1359.31,1008.4c-2.23,6.1-8.26,5.05-8.26,5.05l.07,1.97c-.52,2.03-1.9,1.31-1.9,1.31-2.23-.46-1.31-6.42-1.31-6.42,7.73,3.15,8.78-2.62,8.78-2.62l2.62,.72Z"/>
        <path class="cls-21" d="M1367.31,1006.7l7.8,7.47s4.98-.72,4.72-5.44c0,0-1.44-1.57-3.74,2.23l-6.62-6.16-2.16,1.9Z"/>
        <path class="cls-21" d="M1373.34,993.46s4.92-2.69,5.7-8.26c0,0,1.11,1.44,2.88,.33,0,0,1.77-1.05-.46-3.34l-12.26-5.64s-1.7-3.74,2.29-3.93h4.78s-1.64-7.87-12.58-6.23l2.56,4.59-.39,3.15-4.65,.2s-.66,2.03,.98,2.82l14.29,5.96s-.13,5.83-4.06,7.14l.92,3.21Z"/>
        <path class="cls-3" d="M1354.5,999.25l3.81-1.56s3.94,5.4,7.52,3.85c0,0,6.78-1.79,2.19-9.56l1.81-.82s4.81,4.3,1,10.89c0,0-5.73,6.14-12.1,2.9,0,0-2.82-1.24-4.23-5.69Z"/>
        <circle class="cls-21" cx="1316.43" cy="1012.29" r="13.46"/>
        <polygon class="cls-21" points="1306.82 1002.85 1306.47 999.71 1318.87 997.09 1319.4 1000.06 1306.82 1002.85"/>
        <path class="cls-21" d="M1309.83,999.49c-3.21-13.7-5.64-12.26-5.64-12.26-5.18,.66,3.41,12.72,3.41,12.72l2.23-.46Z"/>
        <path class="cls-21" d="M1312.06,998.9c1.38-17.96-2.82-16.06-2.82-16.06-4,.33,.92,16.52,.92,16.52l1.9-.46Z"/>
        <path class="cls-21" d="M1316.06,998.18c4.06-15.73-.59-13.83-.59-13.83-3.15-.33-2.16,14.42-2.16,14.42l2.75-.59Z"/>
        <path class="cls-21" d="M1324.45,1022.63s5.77,3.87,9.96,3.67c0,0,3.34-5.51,.13-6.36,0,0-1.84,.26-1.57,4.13,0,0-5.05-1.05-6.69-3.41l-1.84,1.97Z"/>
        <path class="cls-21" d="M1311.08,1024.2s-.59,4.52-8.13,2.43c0,0-1.44,5.31,1.77,7.28,0,0,2.36,.07,.79-4.39,0,0,6.62,.85,8.32-4.59l-2.75-.72Z"/>
        <path class="cls-21" d="M1328.31,1007.31l7.08-6.38-13.02-16.87-3.76,.17-1.75-2.53,3.23-1.92s-.7-2.97,2.71-2.1l6.82-7.17s6.03,1.4,5.07,10.4c0,0-2.18-3.23-6.12-3.06l-3.23,2.53-.35,2.71,16.52,20.19s.61,2.71-2.1,1.92l-2.53-2.53s-7.17,6.73-7.87,6.73l-.7-2.1Z"/>
        <path class="cls-21" d="M1295.54,993.2c-24.12,4.46,2.75,31.72,2.75,31.72,0,0,18.22-30.02-2.75-31.72Z"/>
        <path class="cls-3" d="M1290.39,1010.07l4.82-8.17,7.3,6.23s1.72-11.04-8.22-11.19c0,0-8.86,2.56-3.89,13.13Z"/>
        <polygon class="cls-3" points="1295.61 1005.83 1291.53 1012.77 1297.77 1021.83 1302.04 1010.92 1295.61 1005.83"/>
        <path class="cls-3" d="M1308.83,1012.99l5.33-.87s.79,6.73,7.52,4.89c0,0,6.2-2.71,2.01-9.09l1.57-1.05s4.13,2.25,1.66,9c0,0-2.71,7.08-9.96,6.03,0,0-7.6-.26-8.13-8.91Z"/>
        <circle class="cls-21" cx="1276.77" cy="974.36" r="13.73"/>
        <polygon class="cls-21" points="1268.1 964.49 1267.84 961.61 1279.9 959.42 1280.42 962.22 1268.1 964.49"/>
        <path class="cls-21" d="M1270.99,961.69c-4.63-14.24-8.13-11.88-8.13-11.88-4.19,3.41,6.2,12.06,6.2,12.06l1.92-.17Z"/>
        <path class="cls-21" d="M1273.52,960.99c-.26-18.26-4.81-16.08-4.81-16.08-5.51-.52,2.88,16.52,2.88,16.52l1.92-.44Z"/>
        <path class="cls-21" d="M1277.1,960.38c3.23-15.12-1.14-14.77-1.14-14.77-3.76-1.14-1.22,15.21-1.22,15.21l2.36-.44Z"/>
        <circle class="cls-21" cx="1298.78" cy="979.78" r="2.1"/>
        <path class="cls-21" d="M1289.86,972.97s10.31-2.62,8.65,5.24l1.66,.35s3.5-11.36-10.84-8.04l.52,2.45Z"/>
        <circle class="cls-21" cx="1253.51" cy="968.95" r="2.45"/>
        <path class="cls-21" d="M1255.43,969.21c5.07-2.18,8.48,2.01,8.48,2.01l1.31-2.71s-4.02-4.19-11.45-1.22l1.66,1.92Z"/>
        <path class="cls-21" d="M1282.08,986.16s3.93,2.53,4.46,6.03c0,0,5.86-.7,5.51-3.67,0,0-.79-1.75-4.11,.7,0,0-2.27-4.28-4.19-4.02l-1.66,.96Z"/>
        <path class="cls-21" d="M1265.57,981.53s-2.71,6.38-5.94-.61c0,0-3.85,1.4-3.41,3.5,0,0,1.14,.87,3.32-.44,0,0,4.02,5.51,7.78-.61l-1.75-1.84Z"/>
        <path class="cls-3" d="M1275.94,964.82l2.43,1.84s-3.54,7.34-.13,8.98c0,0,5.9,4.92,8.91-2.36l1.77,.13s.79,6.36-5.44,7.93c0,0-11.6,1.57-12.26-8,0,0,0-5.18,4.72-8.52Z"/>
        <polygon class="cls-21" points="1292.53 948.63 1292.79 950.33 1351.12 936.57 1351.12 938.14 1362.26 932.64 1349.16 931.98 1350.6 934.01 1292.53 948.63"/>
        <circle class="cls-21" cx="1208.5" cy="1008.01" r="13.72"/>
        <polygon class="cls-21" points="1198.8 998.57 1198.45 995.16 1211.3 991.93 1211.91 995.16 1198.8 998.57"/>
        <path class="cls-21" d="M1201.51,994.73c-1.92-15.38-6.29-12.85-6.29-12.85-3.93,1.57,4.02,13.63,4.02,13.63l2.27-.79Z"/>
        <path class="cls-21" d="M1202.3,995.08s-5.07-19.23-.96-18.61c0,0,5.24-.79,3.85,17.74l-2.88,.87Z"/>
        <path class="cls-21" d="M1206.06,993.68s-1.4-15.56,2.27-15.12c0,0,4.89-1.22,.52,14.59l-2.8,.52Z"/>
        <circle class="cls-21" cx="1192.9" cy="1019.85" r="2.32"/>
        <path class="cls-21" d="M1190.59,1019.85l1.66-1.62s-1.92-5.51,4.19-5.86l-1.14-2.8s-8.65,3.23-4.28,10.31"/>
        <path class="cls-21" d="M1205.36,1020.59s-.96,5.68-7.17,6.03c0,0-.09,4.81,4.46,4.98,0,0,1.05-1.57-1.31-3.58,0,0,5.16-1.22,6.12-6.99l-2.1-.44Z"/>
        <path class="cls-21" d="M1215.58,1019.11s8.65,.87,10.49,3.15c0,0,4.37-3.67,2.53-7.08,0,0-2.71-.35-2.97,3.67,0,0-6.73-2.1-8.74-1.31l-1.31,1.57Z"/>
        <path class="cls-21" d="M1222.05,992.37c6.03,9.61-.96,11.36-.96,11.36l-.96-2.01s5.77-1.66-.17-8.3l-32.33,10.75-.7-1.75,42.03-15.56-1.49-2.18,4.11,1.14,4.37-1.49s-.09-5.16,.7-6.47l1.92-.7s-.7,5.68,.17,6.12l2.71-.61-.35-3.23,13.55,.44-11.36,7.34-1.14-2.18-2.36,.96s1.66,3.93,3.76,4.11l-1.92,1.22s-3.58-2.18-4.89-4.63l-4.37,1.57-1.66,3.32-.44-2.8-8.21,3.58Z"/>
        <path class="cls-3" d="M1201.25,1008.45l5.16-.61s1.49,7.08,7.69,4.37c0,0,6.2-1.31,2.36-9.26l1.92-.87s4.19,4.28,0,11.71c0,0-4.81,6.38-12.32,2.8,0,0-4.98-2.88-4.81-8.13Z"/>
        <circle class="cls-21" cx="1186.65" cy="1003.59" r="2.19"/>
        <circle class="cls-21" cx="869.78" cy="982.06" r="13.89"/>
        <path class="cls-21" d="M875.26,993.84l3.6,6.23s-1.57,3.5-.47,3.76c0,0,1.4,1.22,2.7-3.38l-4.05-7.63-1.78,1.01Z"/>
        <path class="cls-21" d="M870.62,994.94l2.12,3.7s-1.42,3.41,.05,3.75c0,0,2.06,1.12,2.14-4.28l-2.61-3.82-1.69,.64Z"/>
        <path class="cls-21" d="M882.5,985.72s5.53,5.29,8.49-2.3l1.97,.83s-3.87,8.56-11.28,3.44l.83-1.97Z"/>
        <circle class="cls-21" cx="891.93" cy="983.27" r="2.2"/>
        <polygon class="cls-21" points="856.28 981.21 844.72 971.17 846.4 969.58 857.03 978.95 856.28 981.21"/>
        <circle class="cls-21" cx="845.14" cy="969.99" r="2.01"/>
        <path class="cls-21" d="M864.06,955.17s-30.31,5.69-19.51,36.08c0,0,1.09-.92-.17-3.52l17.83-30.39s2.51-1,1.84-2.18Zm-19.42,31.15s-5.69-20.51,15.82-28.47l-15.82,28.47Z"/>
        <polygon class="cls-21" points="865.06 969.3 865.5 966.33 878.78 968.42 878.08 971.31 865.06 969.3"/>
        <path class="cls-21" d="M869.17,967.37c3.67-13.89-.52-13.72-.52-13.72-3.93-1.22-1.57,13.28-1.57,13.28l2.1,.44Z"/>
        <path class="cls-21" d="M872.67,967.9c6.64-16.08,2.8-16.17,2.8-16.17-3.58-1.22-5.33,15.64-5.33,15.64l2.53,.52Z"/>
        <path class="cls-21" d="M876.25,968.77c8.74-10.92,4.81-12.5,4.81-12.5-3.15-1.66-7.34,11.62-7.34,11.62l2.53,.87Z"/>
        <path class="cls-3" d="M870.63,979.02l6.29,.08s3.7,9.12-6.14,11.64c0,0-12.66,2.99-10.86-9.28l1.81-.39s-.08,5.03,4.33,4.17c0,0,6.06,.63,4.56-6.21Z"/>
        <circle class="cls-21" cx="1118.27" cy="1011.39" r="13.03"/>
        <path class="cls-3" d="M1110.78,1008.49l5.42-1.87s2.89,10,9.89,4.77c0,0,6.73-7.66-3.94-10.29l.39-1.56c9.89,3.84,7.4,12.09,7.4,12.09,0,0-1.33,7.83-10.32,7.69,0,0-10.03-1.69-8.85-10.83Z"/>
        <circle class="cls-21" cx="1118.74" cy="1012.73" r="2.27"/>
        <path class="cls-21" d="M1110.79,1021.24c-4.04,5.29-7.25,4.26-7.25,4.26-.03-4.2,4.64-7.55,4.64-7.55l.29,1.72s-2.76,2.26-2.35,3.42c0,0,1.37,.41,3.27-2.16l1.4,.33Z"/>
        <path class="cls-21" d="M1119.08,1023.61s.82,6.6-8.55,4.66l.2,4.76,1.97,.4-.42-3.14s8.42,1.13,8.92-6.55l-2.12-.13Z"/>
        <polygon class="cls-21" points="1124.33 1022.31 1130.64 1034.03 1133.84 1032.07 1132.1 1031.3 1131.04 1031.56 1126.02 1021.73 1124.33 1022.31"/>
        <polygon class="cls-21" points="1116.82 1013.48 1113.44 1016.87 1114.6 1018.05 1118.12 1014.44 1116.82 1013.48"/>
        <path class="cls-21" d="M1154.79,1008.83s-.33-2.88-3.13-3.14l-.65-3.89-1.51,3.59-1.27,.09s-3.54-11.5-8.93-15.25l3.15-5.06-5.73,2.67s-4.63-3.96-10.87-5c0,0,.55-1.52,.38-2l3.22-.14-3.46-1.67s.22-1.92-2.56-3l-1.01-3.47-1.26,3.27s-3.63,.13-4.09,4.03l-3.38,.56,3.95,1.65s-.2,2.07,2.76,2.66l-1.54,25.86,.43,.2-2.48,2.71,1.31,.96,15.42-19.42s1.67,2.06,2.36,2.24l-3.29,6.18,4.58-4.81s2.04,1.23,2.71,1.26l-2.2,6.99,3.97-5.79s3.6,1.1,3.93,.95l1.42,4.24s-1.68,2.15-1.4,3.08l-24.9,2.26-.16,.82,24.57-1.74s1.61,3.35,3.9,3.7l.55,3.03,1.5-2.97s2.96-.37,3.61-2.89l3.72-1.13-3.63-1.6Zm-35.01,2.16l2.27-25.89s2.26,.41,3.46-1.36l4.91,1.86s-.92,2.15-.43,3.84l-5.86,3.59,6.59-1.81s1.35,2.35,1.82,2.39l-12.76,17.37Zm13.75-18.19s-2.9-4.71-2.13-6.09c0,0,5.31,2.28,5.33,2.98l-3.2,3.11Zm1.8,2.24l-.86-.86,2.71-3.08,.91,1.3-2.76,2.65Zm1.21,.85l3.42-2.76c2.58,1.42,4.29,7.36,4.29,7.36-4.62-.58-7.7-4.6-7.7-4.6Z"/>
        <polygon class="cls-21" points="1128.01 1003.14 1134.61 995.89 1135.7 997.04 1129.21 1004.52 1128.01 1003.14"/>
        <polygon class="cls-21" points="1104.23 1003.74 1115.43 995.78 1116.99 998.67 1106.36 1007.01 1104.23 1003.74"/>
        <path class="cls-21" d="M1108.06,1001.53c-6.36-8.87-10.5-7.9-10.5-7.9-1.96,3.29,9.04,8.88,9.04,8.88l1.46-.98Z"/>
        <path class="cls-21" d="M1111.08,999.32c-6.22-12.27-10.4-11.79-10.4-11.79-2.44,3.11,8.21,13.62,8.21,13.62l2.18-1.83Z"/>
        <path class="cls-21" d="M1114.09,997.1c-2.93-11.83-6.78-10.75-6.78-10.75-2.75,1.69,4.82,12.52,4.82,12.52l1.96-1.77Z"/>
        <circle class="cls-21" cx="1121.94" cy="980.2" r="1.89"/>
        <circle class="cls-21" cx="1150.2" cy="1010.6" r="1.89"/>
        <circle class="cls-21" cx="837.57" cy="1026.96" r="13.03"/>
        <path class="cls-3" d="M844.88,1023.63l-5.52-1.55s-2.3,10.15-9.6,5.33c0,0-7.16-7.25,3.34-10.5l-.48-1.53c-9.65,4.41-6.69,12.5-6.69,12.5,0,0,1.79,7.74,10.75,7.08,0,0,9.92-2.27,8.2-11.32Z"/>
        <circle class="cls-21" cx="837.18" cy="1028.33" r="2.27"/>
        <path class="cls-21" d="M845.61,1036.36c4.34,5.04,7.49,3.83,7.49,3.83-.21-4.19-5.07-7.27-5.07-7.27l-.19,1.73s2.88,2.1,2.54,3.28c0,0-1.34,.49-3.39-1.97l-1.38,.41Z"/>
        <path class="cls-21" d="M837.48,1039.22s-.43,6.63,8.8,4.15l.08,4.77-1.94,.51,.24-3.16s-8.34,1.62-9.28-6.02l2.1-.25Z"/>
        <polygon class="cls-21" points="832.15 1038.22 826.54 1050.29 823.23 1048.52 824.93 1047.65 826 1047.84 830.44 1037.74 832.15 1038.22"/>
        <polygon class="cls-21" points="839.14 1028.97 842.71 1032.16 841.62 1033.4 837.9 1030 839.14 1028.97"/>
        <path class="cls-21" d="M797.44,1028.34l3.78,.91c.79,2.48,3.77,2.68,3.77,2.68l1.67,2.88,.37-3.06c2.26-.48,3.67-3.92,3.67-3.92l24.63,.31-.21-.81-24.99-.81c.23-.95-1.57-2.99-1.57-2.99l1.17-4.32c.34,.14,3.87-1.18,3.87-1.18l4.3,5.55-2.61-6.85c.67-.08,2.63-1.42,2.63-1.42l4.85,4.54-3.64-5.98c.68-.22,2.22-2.37,2.22-2.37l16.52,18.49,1.25-1.03-2.63-2.56,.42-.23-3.04-25.73c2.92-.77,2.6-2.82,2.6-2.82l3.85-1.87-3.4-.37c-.68-3.87-4.32-3.78-4.32-3.78l-1.45-3.19-.81,3.53c-2.71,1.24-2.38,3.15-2.38,3.15l-3.36,1.87,3.23-.05c-.14,.49,.5,1.97,.5,1.97-6.17,1.4-10.56,5.62-10.56,5.62l-5.88-2.33,3.44,4.87c-5.16,4.06-8.02,15.75-8.02,15.75h-1.28s-1.72-3.51-1.72-3.51l-.42,3.92c-2.78,.42-2.94,3.32-2.94,3.32l-3.53,1.81Zm24.86-18.29c.47-.06,1.68-2.49,1.68-2.49l6.68,1.42-6.06-3.24c.39-1.72-.66-3.81-.66-3.81l4.79-2.14c1.3,1.7,3.53,1.16,3.53,1.16l3.77,25.71-13.75-16.6Zm-4.41-3.67c-.02-.7,5.15-3.28,5.15-3.28,.85,1.33-1.77,6.2-1.77,6.2l-3.38-2.92Zm-1.2,2.78l.83-1.35,2.88,2.92-.81,.91-2.91-2.49Zm-5.67,8.45s1.35-6.02,3.85-7.59l3.57,2.55s-2.85,4.19-7.42,5.04Z"/>
        <polygon class="cls-21" points="827.37 1019.3 820.36 1012.44 819.33 1013.66 826.25 1020.74 827.37 1019.3"/>
        <polygon class="cls-21" points="851.15 1018.51 839.5 1011.22 838.11 1014.19 849.21 1021.9 851.15 1018.51"/>
        <path class="cls-21" d="M847.19,1016.53c5.83-9.22,10.03-8.49,10.03-8.49,2.14,3.17-8.51,9.39-8.51,9.39l-1.52-.9Z"/>
        <path class="cls-21" d="M844.05,1014.49c5.5-12.61,9.69-12.37,9.69-12.37,2.62,2.96-7.41,14.07-7.41,14.07l-2.29-1.7Z"/>
        <path class="cls-21" d="M840.91,1012.46c2.24-11.98,6.14-11.12,6.14-11.12,2.85,1.52-4.08,12.78-4.08,12.78l-2.06-1.65Z"/>
        <circle class="cls-21" cx="832.09" cy="996.05" r="1.89"/>
        <circle class="cls-21" cx="805.65" cy="1028.03" r="1.89"/>
        <path class="cls-21" d="M781.57,1041.83s-7.67,3.81-14.62-2.62l-12.45-10.86s-4.58-6.74,2.21-13.33c0,0,5.04-6.95,12.66-3.29l18.17,13.43s4.94,4.94-.77,11.58c0,0-2.88,4.32-5.2,5.09Z"/>
        <path class="cls-21" d="M776.54,1042.77s-2.62,4.09-.93,8.14h-1.97s-1.89-4.94,.81-8.53l2.08,.39Z"/>
        <path class="cls-21" d="M770.41,1041.15s-2.97,3.01-.73,9.26l-2.28,.19s-2.39-7.49,1.27-10.54l1.74,1.08Z"/>
        <path class="cls-21" d="M754.93,1028.26s-8.41,0-10.34,4.63c0,0-1.2,.12-1.47-.81,0,0,2.24-6.25,11.19-5.79l.62,1.97Z"/>
        <path class="cls-21" d="M753.81,1023.66s-9.3-.54-12,4.63c0,0-1.66-.5-1.81-1.2,0,0,2.43-7.18,14.05-6.1l-.23,2.66Z"/>
        <path class="cls-21" d="M789.24,1028.37s7.41,.93,8.72,12.12l-7.49-.15s3.86-5.87-1.47-9.49l.23-2.47Z"/>
        <path class="cls-21" d="M759.65,1012.96s1.54-6.07-4.43-16.88l1.75-1.54s5.76,5.66,5.25,17.19l-2.57,1.24Z"/>
        <path class="cls-21" d="M755.95,996.39s-6.38,1.34-9.47-.41c0,0-9.37,2.88-11.84,1.85,0,0-11.32-2.57-4.12-14.31,0,0,5.45-3.71,12.15-3.4,0,0,10.19-8.85,17.91,1.65,0,0,5.35,8.23-4.63,14.62Z"/>
        <path class="cls-21" d="M747.3,978.07s-4.12-2.57-.93-9.37c0,0,3.4,5.15,3.29,8.75l-2.37,.62Z"/>
        <path class="cls-21" d="M750.8,977.14c-2.78-4.84,.1-9.06,.1-9.06,0,0,6.79,5.87,3.29,9.67l-3.4-.62Z"/>
        <circle class="cls-3" cx="751.29" cy="986.71" r="6.43"/>
        <circle class="cls-21" cx="749.54" cy="985.11" r="3.8"/>
        <path class="cls-3" d="M734.2,984.52l1.75,10.22s-4.24,1.17-5.26-4.38c0,0-.58-5.26,3.51-5.84Z"/>
        <path class="cls-3" d="M769.16,1011.48s-9.98,11.75-1.65,17.44c0,0,9.93,8.76,18.55-4.97l-16.9-12.48Z"/>
        <circle class="cls-21" cx="783.09" cy="1007.79" r="13.81"/>
        <path class="cls-21" d="M780.46,1020.62l-6.75,7.22-4.63-4.22s-.34-2.59,1.98-1.5l2.52,2.66,4.77-5.25,2.11,1.09Z"/>
        <polygon class="cls-21" points="795.65 1003.46 797.85 1000.29 784.12 991.95 781.15 995.22 795.65 1003.46"/>
        <path class="cls-21" d="M793.22,997.85c5.47-10.48,10.71-10.79,10.71-10.79,1.16,5.54-8.15,12.54-8.15,12.54l-2.55-1.75Z"/>
        <path class="cls-21" d="M789.29,995.49c5.15-16.3,10.58-15.38,10.58-15.38,2.1,4.2-7.89,17-7.89,17l-2.68-1.62Z"/>
        <path class="cls-21" d="M788.83,995.84s5.42-14.15,2.65-16.17c0,0-5.85,.38-5.49,14.32l2.83,1.85Z"/>
        <circle class="cls-21" cx="802.48" cy="1026.39" r="2.18"/>
        <path class="cls-21" d="M801.82,1024.76c.21-6.38-6.24-8.18-6.24-8.18l1.73-1.73s7.49,2.84,6.24,9.91h-1.73Z"/>
        <path class="cls-21" d="M772.87,996.21s-4.02-3.85-3.85-8.21l-.17-5.42s6.79-1.29,9.77-10.03c0,0-4.39,4.83-8.06,4.13l1.11-43.78h1.38l-1.9-7.21-2.29,7.25,1.25-.04-4.19,43.78s-4.5-1.22-6.95-5.77c0,0,1.42,10.09,7.01,11.67l-.79,24.12h1.92l.87-16.6s1.92,6.64,4.02,7.17l.87-1.05Z"/>
        <circle class="cls-3" cx="767.73" cy="979.17" r="1.64"/>
        <circle class="cls-3" cx="782.41" cy="1006.6" r="9.56"/>
        <circle class="cls-21" cx="781.46" cy="1004.31" r="5.55"/>
        <circle class="cls-21" cx="924.31" cy="985.64" r="13.72"/>
        <polygon class="cls-21" points="922.83 972.27 924.58 969.12 936.64 974.54 935.24 978.21 922.83 972.27"/>
        <path class="cls-21" d="M928.31,971.44c6.75-15.27,1.31-13.57,1.31-13.57-3.28-1.11-3.8,12.58-3.8,12.58l2.49,.98Z"/>
        <path class="cls-21" d="M928.9,971.77s6.23-17.89,8.65-14.03c0,0,4.46,.39-6.42,15.21"/>
        <path class="cls-21" d="M934.73,974.32c12.19-10.22,7.28-11.67,7.28-11.67-2.82-3.08-9.24,10.62-9.24,10.62l1.97,1.05Z"/>
        <path class="cls-21" d="M924.9,998.83l-.07,8.32s3.67,.85,3.6-.39c0,0,.52-.85-1.77-1.18l-.13-7.01-1.64,.26Z"/>
        <path class="cls-21" d="M921.82,998.44l.07,8.65s-4.19,.98-4.06-.79c0,0,1.05-.59,2.29-.59l-.13-7.6,1.84,.33Z"/>
        <path class="cls-21" d="M934.82,993.53s2.88,4.28,9.79,1.92v7.95l3.15,.09,.09-38.8s2.18-1.75,1.75-8.13c0,0,4.37-1.14,5.07-3.15l2.97-.09s1.05,7.52-1.66,8.74c0,0-1.57,9.61,2.01,9.79,0,0-1.49-7.78,.79-8.3,0,0,10.66-13.11,1.31-19.57,0,0,.52,5.42-5.07,6.03,0,0-5.16,1.14-5.59-4.89l1.57-.09-.17-1.49h-4.54l-.09,1.4h1.57s0,3.85-2.53,3.58c0,0-1.05,.61-.87,2.8l-3.15-.09,.09-1.4-1.66,.09v4.98l1.57-.17-.09-1.31h3.15s-.09,2.88,1.84,3.06l.09,32.51s-1.92,8.3-9.96,2.53l-1.4,2.01Z"/>
        <circle class="cls-3" cx="948.5" cy="952.15" r="2.23"/>
        <circle class="cls-21" cx="946.27" cy="1005.5" r="2.62"/>
        <path class="cls-21" d="M911.1,982.74s-11.75-6.34-10.75-13.24c0,0,1.31-1.18,2.23,.7,0,0,5.07,7.91,10.01,9.35l-1.49,3.19Z"/>
        <circle class="cls-3" cx="923.7" cy="984.25" r="10.14"/>
        <circle class="cls-21" cx="921.69" cy="983.47" r="5.34"/>
        <circle class="cls-21" cx="887.09" cy="1020.07" r="13.5"/>
        <polygon class="cls-21" points="884.66 1006.9 886.5 1003.88 899.74 1009.71 898.03 1012.79 884.66 1006.9"/>
        <path class="cls-21" d="M889.18,1005.32c6.62-11.34,3.08-13.04,3.08-13.04-4.13-1.44-4.72,12.39-4.72,12.39l1.64,.66Z"/>
        <path class="cls-21" d="M890.04,1006.24s5.57-16.58,9.31-13.89c0,0,4.13,2.1-5.57,15.27l-3.74-1.38Z"/>
        <path class="cls-21" d="M894.3,1007.94s6.69-12.06,9.7-10.68c0,0,2.03,3.6-7.14,11.67l-2.56-.98Z"/>
        <circle class="cls-21" cx="899.63" cy="1037.41" r="2.35"/>
        <path class="cls-21" d="M896.78,1029.07s3.83-.58,2.31,6.5l1.59,.22s2.17-7.58-2.96-8.67l-.94,1.95Z"/>
        <path class="cls-21" d="M887.75,1033.4l.07,10.91s6.21,.94,6.07-.94c0,0,.72-1.01-2.89-1.52l-.65-8.96-2.6,.51Z"/>
        <path class="cls-21" d="M886.25,1033.33l-.07,10.91s-6.21,.94-6.07-.94c0,0-.72-1.01,2.89-1.52l.65-8.96,2.6,.51Z"/>
        <polygon class="cls-21" points="876.33 1024.75 865.27 1035.34 863.84 1033.53 874.15 1023.8 876.33 1024.75"/>
        <circle class="cls-21" cx="864.14" cy="1034.82" r="2.01"/>
        <path class="cls-21" d="M851.12,1014.62s2.9,30.7,34.15,22.72c0,0-.82-1.17-3.52-.15l-28.64-20.53s-.77-2.59-2-2.03Zm29.24,22.19s-20.95,3.8-26.9-18.36l26.9,18.36Z"/>
        <path class="cls-3" d="M879.29,1011.35l2.23,1.05s-5.77,6.16-1.51,9.04c0,0,5.83,3.74,8.06,0,0,0,1.38-.92,1.05-4.78h6.55s2.49,9.31-4.59,11.47c0,0-11.21,.59-14.94-6.55,0,0-1.84-8.45,3.15-10.22Z"/>
        <circle class="cls-21" cx="1092.13" cy="976.12" r="12.47"/>
        <circle class="cls-21" cx="1079.1" cy="987.04" r="1.97"/>
        <path class="cls-21" d="M1077.44,986.44c-3.96-.83,3.6-6.24,3.6-6.24l-.68-1.48s-10.37,7.19-2.79,9.13l-.12-1.41Z"/>
        <path class="cls-21" d="M1087.17,986.84s-.33,2.62-3.27,2.2c0,0-2.71,2.95-1.94,4.74,0,0,1.45-.31,2.49-3.3,0,0,3.53-.61,4.14-2.83l-1.43-.8Z"/>
        <path class="cls-21" d="M1092.35,988.18s-.25,3.6-7.33,5.26c0,0,1.32,4.58,2.68,4.58,0,0,.59-1.78-.37-3.61,0,0,6.31-2.02,6.68-6.26l-1.67,.02Z"/>
        <polygon class="cls-21" points="1102.55 970.39 1112.89 960.73 1114.16 961.86 1103.82 971.58 1102.55 970.39"/>
        <path class="cls-21" d="M1132.88,966.36s-3.34,.6-3.76,.02l-6.13-6.63,2.29-2.05s-.36-1.33-1.29-1.37l-1.93,1.96-4.35-4.63,2.18-1.92s-.07-1.48-1.49-1.48l-2.12,1.91-5.59-6.12s-.91-2.64,.04-3.83c0,0,.75-7.04-5.6-5.57,0,0-4.26,2.9,.09,6.04,0,0,1.84,.58,3.34,.02,0,0-.81,4.21-2.01,4.68,0,0-1.85,6.52,1.94,10.33,0,0,1.52,3.27,3.82,2.08,0,0,.22,2.51,3.12,3.25,0,0-1.81,5.53,8.39,7.12,0,0,5.42-.9,7.87-1.85,0,0-2.06,4.81,2.5,5.4,0,0,3.92-.34,3.42-3.32,0,0,.34-3.98-4.73-4.04Zm-21.31-14.46s-1.87-1.63-1.34-4.82l4.75,4.96s-.56,2.77-3.41-.14Zm6.18,10.15l-4.49-4.8,3.51-3.02,4.2,5.07-3.22,2.75Zm5.83,3.14s-1.49-1.48-1.14-3.91l5.01,5.13s-1.99,1.22-3.87-1.21Z"/>
        <circle class="cls-3" cx="1134.4" cy="970.7" r="1.57"/>
        <circle class="cls-3" cx="1106.63" cy="939.69" r="1.57"/>
        <polygon class="cls-3" points="1109.81 954.39 1108.9 955.21 1110.72 957.09 1111.88 956.13 1109.81 954.39"/>
        <polygon class="cls-3" points="1117.31 964.8 1118.13 963.49 1120.33 965.46 1119.31 966.42 1117.31 964.8"/>
        <polygon class="cls-21" points="1078.33 956.24 1091.61 955.22 1092.01 959.57 1078.74 960.68 1078.33 956.24"/>
        <path class="cls-21" d="M1083.31,956.36c-1.57-13.94-4.95-11.58-4.95-11.58-3.08,.79,2.76,11.68,2.76,11.68l2.18-.1Z"/>
        <path class="cls-21" d="M1086.52,956.28c1.12-16.91-2.41-14.65-2.41-14.65-3.68-.49-.22,14.68-.22,14.68l2.63-.03Z"/>
        <path class="cls-21" d="M1089.9,955.89c3.51-12.71,.36-11.85,.36-11.85-3.44-.89-2.29,11.92-2.29,11.92l1.92-.07Z"/>
        <path class="cls-3" d="M1085.8,971.4l5.99,1.71s-.94,6.25,5.56,6.27c0,0,5.68,0,4.76-7.82l.97-.17s2.58,7.93-4.06,11.21c0,0-8.16,3.67-12.06-2.42,0,0-2.08-3.11-1.17-8.79Z"/>
        <circle class="cls-21" cx="988.84" cy="1014.12" r="13.38"/>
        <polygon class="cls-21" points="980.61 1003.88 980.68 1000.54 996.15 1000.47 996.15 1003.16 980.61 1003.88"/>
        <path class="cls-21" d="M984.68,1000.8c-1.64-14.62-6.82-13.57-6.82-13.57-2.88,2.03,4.78,13.83,4.78,13.83l2.03-.26Z"/>
        <path class="cls-21" d="M987.69,1001c1.64-21.89-4.26-18.88-4.26-18.88-3.15,.79,1.64,18.74,1.64,18.74l2.62,.13Z"/>
        <path class="cls-21" d="M992.41,1001.06c3.67-16.39-.66-15.93-.66-15.93-4.46-2.16-2.75,15.93-2.75,15.93h3.41Z"/>
        <path class="cls-21" d="M988.57,1027.26l-.06,10.76s-5.26,.86-4.83-.98c0,0-.31-1.28,2.75-1.04l.18-9.23,1.96,.49Z"/>
        <path class="cls-21" d="M990.84,1027.11l.06,10.76s5.26,.86,4.83-.98c0,0,.31-1.28-2.75-1.04l-.18-9.23-1.96,.49Z"/>
        <path class="cls-21" d="M1000.92,1020.04s2.81,3.91-2.81,3.42l-1.59,.98s10.21,2.2,5.14-6.42l-.73,2.02Z"/>
        <circle class="cls-3" cx="990.25" cy="1012.99" r="9.7"/>
        <circle class="cls-21" cx="990.77" cy="1010.37" r="5.37"/>
        <path class="cls-21" d="M1009.26,939.32c-4.19-1.4-3.32-30.06-3.32-30.06-1.77,1.89-7.89,3.12-14.17,3.9l-.21-7.33,.05-1.28,1.75-.17,.09-1.57h4.72v-1.57l-4.89-.17-.09-4.81-6.47,.09,.17,4.72h-5.07v1.84h4.89l.09,1.57,1.84-.09,.14,1.55,.23,7.55c-6.97,.73-13.39,.95-13.39,.95-5.07,10.22,6.64,35.65,6.64,35.65,1.84,.17,1.92,23.25,1.92,23.25,1.66-.81,4.06-3.58,6.43-6.74l1.72,56.7h2.59l-1.72-60.29c2.94-4.26,5.32-8.19,5.32-8.19,5.51,.79,16.69,12.23,16.69,12.23,1.84-9.09-5.94-27.7-5.94-27.7Zm-30.59-23.33l4.81-.17s-2.01,7.6-4.81,.17Zm9.26-1.22l1.1-.12,.06,1.82c-.36-.43-.74-.97-1.15-1.7Zm3.94,2.42l-.08-2.85,1.64-.18s-.51,2.11-1.56,3.03Zm5.06-3.73l6.2-1.22s-1.49,7.95-6.2,1.22Z"/>
        <circle class="cls-3" cx="992.43" cy="933.28" r="12.15"/>
        <circle class="cls-21" cx="992.26" cy="933.45" r="8.42"/>
        <circle class="cls-3" cx="991.94" cy="933.12" r="5.18"/>
        <circle class="cls-21" cx="711.82" cy="1035.14" r="13.9"/>
        <polygon class="cls-21" points="706.9 1022.4 707.72 1019.24 720.96 1022.08 720.17 1025.09 706.9 1022.4"/>
        <path class="cls-21" d="M711.7,1020.85c3.01-14.66-.47-14.61-.47-14.61-3.43-.33-2.16,14-2.16,14l2.63,.61Z"/>
        <path class="cls-21" d="M715.32,1021.51c6.39-18.42,2.77-17.67,2.77-17.67-3.99-1.17-5.78,16.96-5.78,16.96l3.01,.7Z"/>
        <path class="cls-21" d="M719.59,1022.21c8.74-13.11,4.46-13.58,4.46-13.58-4.18-2.16-7.66,13.06-7.66,13.06l3.2,.52Z"/>
        <path class="cls-21" d="M711.87,1048.56s-1.57,7.6,9.87,5.86c0,0-.09,5.42,2.01,4.72,0,0,.61-2.18-.44-6.55,0,0-10.92,2.01-9.87-4.37l-1.57,.35Z"/>
        <path class="cls-21" d="M707.33,1047.68s-1.31,10.75-3.32,9.79c0,0-5.59,.79-2.1,3.15,0,0,3.94,.5,5.51-2.88l1.84-9.7-1.92-.35Z"/>
        <path class="cls-21" d="M731.28,1026.45c-22.14,.2-2.51,28.63-2.51,28.63,0,0,20.89-23.84,2.51-28.63Z"/>
        <path class="cls-3" d="M724.06,1040.64l5.56-6.51,5.52,6.67s3.25-9.55-5.56-11.24c0,0-8.28,.9-5.51,11.07Z"/>
        <polygon class="cls-3" points="729.36 1037.69 724.66 1043.22 728.79 1052.24 734.29 1043.21 729.36 1037.69"/>
        <path class="cls-21" d="M698.52,1034s-3.37,.68-5.19-.49c0,0,.52-1.37-.05-2.1,0,0-.79-.96-2.07,1.71l-1.75-.79-.18-1.85h-3.33s-.16-4.46-.16-4.46l-4.82,.94s-5.48-2.37-5.66-3.34c0,0-7.86-13.47-24.21-11.01,0,0,3.05,13.86,22.68,14.4l5.98,2.95,1.12,4.29,4.25-2.22,2,2.41,1.65-.36,1.39,.63s-1.55,2.12-.67,3.01c0,0,1.45,.62,2.59-2.2,0,0,5.41,1.06,6.92,.22l-.49-1.74Z"/>
        <path class="cls-3" d="M654.35,1014.63s9.26,9,22.96,12.35c0,0-16.4-12.56-22.96-12.35Z"/>
        <path class="cls-3" d="M699.11,1031.43l1.66,.26s-.79,8.48,5.42,7.95c0,0,7.08,1.14,6.29-7.87l6.12-.35s1.31,9.26-3.23,11.27c0,0-7.95,5.07-14.51-1.31,0,0-2.97-2.62-1.75-9.96Z"/>
        <circle class="cls-21" cx="1046.05" cy="1008.8" r="13.28"/>
        <polygon class="cls-21" points="1035.14 1002.44 1034.03 999.23 1045.37 992.94 1046.81 996.08 1035.14 1002.44"/>
        <path class="cls-21" d="M1035.14,999.03s-11.54-8.26-8.91-11.47c0,0,4.26-2.16,10.42,10.75l-1.51,.72Z"/>
        <path class="cls-21" d="M1037.7,997.65s-10.09-12.19-6.62-15.34c0,0,4.98-2.1,9.24,13.96l-2.62,1.38Z"/>
        <path class="cls-21" d="M1041.04,996.02s-6.42-13.83-2.69-15.21c0,0,4.46-.59,4.92,13.89l-2.23,1.31Z"/>
        <path class="cls-21" d="M1045.3,1021.71s2.56,6.1-6.88,9.7c0,0,.13,4.72,1.51,4.98,0,0,1.44,.13,.39-4.26,0,0,8.65-2.43,6.62-10.68l-1.64,.26Z"/>
        <path class="cls-21" d="M1051.2,1020.73s8.65,11.08,9.7,10.81c0,0,3.28-2.69,2.43-4.46,0,0-.98,.2-2.49,1.97l-8.45-9.57-1.18,1.25Z"/>
        <circle class="cls-3" cx="1047.45" cy="1007.99" r="10.3"/>
        <circle class="cls-21" cx="1049.18" cy="1006.42" r="5.93"/>
        <path class="cls-21" d="M1056.22,1001.04l5.99-9.42s-19.02-38.75-9.96-41.81c0,0,2.01-1.73,3.6-1.39,0,0,.85-2.23,2.49-1.31,0,0,.98,1.38,.33,2.62,0,0,1.51,1.18,1.18,2.03,0,0,2.23-.79,2.82,.59,0,0,1.44,2.03-1.05,2.69,0,0,.59,2.62,0,3.01,0,0,1.97,.2,1.25,2.16,0,0,.59,1.57-3.08,.98,0,0-2.49,1.51-4.65,1.7,0,0,1.64,10.75,13.11,29.56,0,0,.39,1.84-4.72,.26l-5.77,9.96-1.53-1.66Z"/>
        <circle class="cls-3" cx="1055.76" cy="956.2" r="3.64"/>
        <circle class="cls-21" cx="1055.86" cy="956.36" r="1.77"/>
        <path class="cls-21" d="M1022.21,999.52c-21.62,11.59,12.28,29.38,12.28,29.38,0,0,8.22-34.14-12.28-29.38Z"/>
        <path class="cls-3" d="M1022.43,1017.16l2.1-9.24,8.85,3.71s-1.72-11.04-11.24-8.16c0,0-7.66,5.14,.29,13.7Z"/>
        <polygon class="cls-3" points="1026.12 1011.54 1024.35 1019.39 1033.04 1026.11 1033.79 1014.42 1026.12 1011.54"/>
        <circle class="cls-21" cx="1595.72" cy="917.09" r="13.82"/>
        <polygon class="cls-21" points="1604.64 898.42 1608.13 895.45 1617.57 906.64 1613.9 909.61 1604.64 898.42"/>
        <path class="cls-21" d="M1611.19,899.82c10.84-8.13,7.52-11.19,7.52-11.19-2.71-2.18-9.26,9.18-9.26,9.18l1.75,2.01Z"/>
        <path class="cls-21" d="M1613.2,902.18c15.03-7.17,11.8-10.05,11.8-10.05-3.06-2.62-13.11,8.3-13.11,8.3l1.31,1.75Z"/>
        <path class="cls-21" d="M1615.74,904.98c12.76-3.85,10.31-6.73,10.31-6.73-1.57-2.45-11.8,5.07-11.8,5.07l1.49,1.66Z"/>
        <path class="cls-21" d="M1600.72,929.61l6.93,5.44s.72,4.57,2.12,.82c0,0,2.31-1.83-7.08-7.41l-1.97,1.16Z"/>
        <path class="cls-21" d="M1604.28,927.68l8.33,5.97s.1,6.07,1.93,1.3c0,0,.87-3.95-9.05-9l-1.2,1.73Z"/>
        <path class="cls-21" d="M1582.83,915.9h-5.62l-.48,1.45s3.3,2.62,6.01,2.33l.87,2.71s-5.14,0-7.66-3.59l-1.55,2.33,5.04,3.88s2.13,2.52-1.36,1.94l-5.53-2.91-.19,6.11-18.42,21.91-3.68-2.13,14.06-25.89,5.53-1.94-5.91-4.75s-.97-2.62,2.04-2.04l5.82,3.59,5.72-9.41s3.78-1.26,2.81,2.33l-1.07,2.33h3.88l-.29,1.75Z"/>
        <path class="cls-3" d="M1554.95,946.15c1.03-4.54,14.15-19.58,14.15-19.58,0,0-10.33,17.02-14.15,19.58Z"/>
        <circle class="cls-3" cx="1593.49" cy="915.8" r="9.5"/>
        <circle class="cls-21" cx="1591.31" cy="916.24" r="5.19"/>
        <path class="cls-3" d="M1605.42,917.84c-1.16-1.07-.19-3.59-.19-3.59,0,0,1.45,1.75,.19,3.59Z"/>
        <polygon class="cls-21" points="1134.12 938.6 1135.13 939.79 1150.32 925.23 1151.23 926.45 1153.75 920.39 1148.29 922.94 1149.16 923.97 1134.12 938.6"/>
        <polygon class="cls-21" points="1107.72 827.67 1108.72 828.86 1123.91 814.3 1124.82 815.52 1127.34 809.46 1121.89 812 1122.75 813.04 1107.72 827.67"/>
        <polygon class="cls-21" points="1103.3 817.64 1104.85 817.54 1102.05 796.68 1103.57 796.66 1100.16 791.06 1099 796.96 1100.34 796.87 1103.3 817.64"/>
        <polygon class="cls-21" points="1100.07 815.95 1101.48 816.6 1109.05 796.97 1110.4 797.68 1110.11 791.13 1106.25 795.75 1107.47 796.32 1100.07 815.95"/>
        <polygon class="cls-21" points="1071.37 797.26 1072.37 798.45 1087.56 783.89 1088.47 785.11 1090.99 779.05 1085.54 781.59 1086.4 782.63 1071.37 797.26"/>
        <polygon class="cls-21" points="1243.65 861.84 1244.81 862.88 1257.74 846.27 1258.82 847.35 1260.43 840.99 1255.4 844.29 1256.41 845.19 1243.65 861.84"/>
        <polygon class="cls-21" points="1167.14 964.35 1168.15 965.54 1183.34 950.98 1184.25 952.2 1186.77 946.14 1181.31 948.68 1182.18 949.71 1167.14 964.35"/>
        <polygon class="cls-21" points="1174.35 905.77 1174.32 907.33 1195.34 906.46 1195.22 907.98 1201.11 905.1 1195.34 903.4 1195.3 904.75 1174.35 905.77"/>
        <polygon class="cls-21" points="1211.86 965.34 1213.38 965.67 1216.48 944.86 1217.95 945.26 1216.23 938.93 1213.48 944.28 1214.79 944.57 1211.86 965.34"/>
        <polygon class="cls-21" points="1190.78 942.17 1191.93 943.21 1205.01 926.72 1206.07 927.8 1207.75 921.46 1202.69 924.72 1203.68 925.63 1190.78 942.17"/>
        <polygon class="cls-21" points="1199.02 945.29 1200.57 945.36 1200.12 924.32 1201.63 924.47 1198.88 918.52 1197.06 924.26 1198.41 924.32 1199.02 945.29"/>
        <polygon class="cls-21" points="1251.71 940 1253.03 940.83 1263.01 922.3 1264.25 923.18 1264.79 916.64 1260.38 920.74 1261.52 921.45 1251.71 940"/>
        <polygon class="cls-21" points="1328.49 875.08 1329.52 876.25 1344.37 861.35 1345.31 862.54 1347.69 856.43 1342.3 859.09 1343.18 860.11 1328.49 875.08"/>
        <polygon class="cls-21" points="1390 888.16 1391.48 888.63 1396.52 868.2 1397.94 868.74 1396.83 862.28 1393.58 867.34 1394.86 867.75 1390 888.16"/>
        <polygon class="cls-21" points="1514.95 966.79 1515.95 967.99 1531.14 953.43 1532.06 954.64 1534.57 948.59 1529.12 951.13 1529.99 952.16 1514.95 966.79"/>
        <polygon class="cls-21" points="1724.54 1041.88 1723.59 1040.65 1707.81 1054.56 1706.95 1053.31 1704.18 1059.25 1709.73 1056.94 1708.91 1055.87 1724.54 1041.88"/>
        <polygon class="cls-21" points="1587.12 1029.03 1585.84 1029.91 1598.83 1046.46 1597.53 1047.25 1603.31 1050.35 1601.32 1044.67 1600.21 1045.43 1587.12 1029.03"/>
        <polygon class="cls-21" points="1386.31 929.42 1385.35 930.65 1402.68 942.58 1401.67 943.72 1408.11 944.96 1404.52 940.13 1403.68 941.18 1386.31 929.42"/>
        <polygon class="cls-21" points="1341.63 1014.89 1340.24 1015.59 1350.91 1033.72 1349.52 1034.33 1354.83 1038.17 1353.61 1032.28 1352.41 1032.88 1341.63 1014.89"/>
        <polygon class="cls-21" points="1278.84 1013.47 1277.57 1014.37 1290.79 1030.74 1289.5 1031.54 1295.33 1034.56 1293.25 1028.91 1292.15 1029.69 1278.84 1013.47"/>
        <polygon class="cls-21" points="1238.5 1012.96 1237.09 1013.63 1247.23 1032.06 1245.82 1032.63 1251.02 1036.63 1249.97 1030.7 1248.75 1031.27 1238.5 1012.96"/>
        <polygon class="cls-21" points="1247.13 1011.58 1245.67 1011.04 1239.62 1031.19 1238.23 1030.59 1239.02 1037.1 1242.51 1032.2 1241.25 1031.72 1247.13 1011.58"/>
        <polygon class="cls-21" points="1080.8 1020.84 1079.81 1022.04 1096.83 1034.4 1095.8 1035.51 1102.21 1036.91 1098.74 1032 1097.87 1033.03 1080.8 1020.84"/>
        <polygon class="cls-21" points="960.7 1018.85 959.25 1019.41 968.1 1038.5 966.65 1038.97 971.56 1043.31 970.93 1037.33 969.67 1037.81 960.7 1018.85"/>
        <polygon class="cls-21" points="825.05 954.16 826.03 952.94 808.83 940.83 809.84 939.7 803.42 938.4 806.96 943.26 807.81 942.21 825.05 954.16"/>
        <polygon class="cls-21" points="797.27 960.66 798.27 959.47 781.33 947 782.37 945.89 775.97 944.45 779.41 949.39 780.28 948.36 797.27 960.66"/>
        <polygon class="cls-21" points="817.92 1039.17 817.11 1037.84 799.92 1049.97 799.2 1048.63 795.8 1054.24 801.57 1052.54 800.87 1051.39 817.92 1039.17"/>
        <polygon class="cls-21" points="754.38 1040.28 753.1 1039.39 742.24 1057.41 741.04 1056.48 740.2 1062.98 744.79 1059.1 743.69 1058.33 754.38 1040.28"/>
        <polygon class="cls-21" points="716.37 982.1 715.59 980.76 698.11 992.47 697.42 991.12 693.89 996.65 699.7 995.09 699.03 993.92 716.37 982.1"/>
        <polygon class="cls-21" points="747.74 874.19 749.29 874.01 745.45 853.32 746.97 853.23 743.29 847.8 742.42 853.75 743.76 853.6 747.74 874.19"/>
        <polygon class="cls-21" points="754.46 944.09 755.85 943.39 745.19 925.25 746.58 924.64 741.27 920.8 742.48 926.69 743.69 926.09 754.46 944.09"/>
        <polygon class="cls-21" points="734.35 949.83 735.9 949.91 735.63 928.87 737.14 929.04 734.43 923.06 732.57 928.78 733.91 928.86 734.35 949.83"/>
        <polygon class="cls-21" points="740.94 943.59 741.16 942.05 720.18 940.4 720.48 938.91 714.29 941.06 719.81 943.44 720.01 942.11 740.94 943.59"/>
        <polygon class="cls-21" points="726.17 960.89 727.36 959.89 712.81 944.69 714.02 943.78 707.97 941.26 710.51 946.71 711.54 945.85 726.17 960.89"/>
        <polygon class="cls-21" points="685.06 965.01 686.19 966.08 699.69 949.95 700.73 951.06 702.57 944.76 697.43 947.89 698.4 948.82 685.06 965.01"/>
        <polygon class="cls-21" points="654.17 967.36 654.77 965.92 634.85 959.14 635.51 957.77 628.97 958.32 633.74 961.99 634.26 960.75 654.17 967.36"/>
        <polygon class="cls-21" points="644.18 975.02 643.3 973.73 626.73 986.7 625.94 985.4 622.83 991.17 628.51 989.19 627.76 988.07 644.18 975.02"/>
        <polygon class="cls-21" points="640.4 983.92 638.97 983.29 631.62 1003 630.27 1002.3 630.64 1008.85 634.44 1004.19 633.22 1003.63 640.4 983.92"/>
        <polygon class="cls-21" points="674.3 976.58 648.38 999.49 647.24 998.04 646.52 1000.95 643.48 1004.04 642.8 1001.43 640.96 1006.44 637.85 1009.27 637.23 1005.8 634.83 1012.71 633.09 1014.91 632.04 1008.96 627.86 1020.59 640.71 1017.62 634.84 1016.27 636.27 1014.78 643.57 1012.75 639.69 1011.24 642.52 1008.69 648.16 1007.02 645.48 1006.11 648.07 1003.42 651.29 1002.65 649.94 1001.74 674.3 976.58"/>
        <path class="cls-21" d="M1350.67,921.93l21.15-33.05,1.21,1.1-.21-2.34,1.21-2.02,1.92,1.52-.77-3.5,1.42-2.46,2.48,2.68-.44-3.33s5.96,1.16,9.32-4.78c0,0,1.55-4.63,5.84-6.04,0,0-3.34-1.67-7.55,4.6,0,0-2.9,.98-3.05-.37,0,0,7.61-12.13,6.54-14.14,0,0-4.58,.12-11.46,13.58,0,0-1.36,.49-1.5-2.05,0,0,5.22-10.97,1.97-12.09,0,0,1.69,3.65-4.92,11.58,0,0-1.81,4.25,.94,7.14l-3.37,1.05,3.72,1.4-1.62,2.22-3.57,.64,2.46,1.25-1.42,2.12-2.31,.28,1.45,.9-20.97,32.37,1.54,1.78Z"/>
        <circle class="cls-3" cx="1378.19" cy="877.21" r="1.88"/>
        <path class="cls-6" d="M1719.88,770.76s2.39,12.26,2.07,16.71c0,0,2.07,4.14,10.35,3.34,0,0,8.12,2.71,9.55,4.93,0,0-30.72,30.4-50.77-14.01l28.81-10.98Z"/>
        <path class="cls-6" d="M1754.1,763.44s35.81,17.35,49.5-7.96l-14.17-5.09s-23.87,1.27-27.54-4.14l-7.8,17.19Z"/>
        <path class="cls-6" d="M1764.44,733.67l31.51-.8s13.05-9.39,13.53-14.32c0,0-9.07-6.84-13.37-6.84l-28.01,2.07-3.66,19.9Z"/>
        <path class="cls-6" d="M1766.35,705.02s28.33-2.86,30.4-29.92h-15.6s-13.53,10.66-20.85,12.1l6.05,17.83Z"/>
        <path class="cls-6" d="M1754.89,680.03l16.08-11.94s4.62-11.78,3.34-18.14l-13.85-.32-18.78,15.92,13.21,14.48Z"/>
        <path class="cls-6" d="M1239.7,802.73s-15.99,4.98-17.57,8.13c0,0-34.61,64.23-90.19,38.54,0,0,45.62,47.19,125.05-4.19l-17.3-42.47Z"/>
        <path class="cls-21" d="M1614.6,1025.58s-3.67,7.87-10.75,11.54c0,0,8.13,8.91,18.09,4.72l29.1-43.26s.26-3.41-3.15-2.88c0,0-3.28-10.36-6.42-4.06,0,0-3.01,.92-5.64-3.01,0,0,4.85-8.52,2.75-10.75,0,0-4.59-4.72-6.42-2.75,0,0,1.44,6.42-1.18,9.31,0,0-1.84,1.44-4.85-.39,0,0-3.28-2.62-.79-4.85,0,0,1.97-1.97-.26-4.06,0,0-3.54-2.62-4.19,.92,0,0-.26,6.55-4.06,6.69l-21.1-13.11-4.72,7.34s-3.28-7.47-8.91-4.59c0,0-5.77-12.32-15.86-11.4l-34.87-26.48s5.37-1.44,.26-3.54c0,0-9.83,1.44-8.78-6.95l8.91,.26s1.7,4.06,4.19,.13c0,0,5.77-9.31-.79-8.65,0,0-1.57,3.41-5.37,2.62l-6.16,.13-.39-11.27s16.12,1.31,14.29-3.93c0,0-1.44-8.78-6.82-4.85,0,0-2.88,4.19-8.78,4.46l-.13-3.93s-9.18,3.67-16.25,1.7c0,0-2.23-4.98-1.31-7.34,0,0,3.8-.13,4.06-2.75l-6.03-.52-.26-6.69,5.11-.26s-2.1-9.57-3.28-11.27c0,0,13.24,2.1,15.47-1.44,0,0,.66-2.62,0-4.59,0,0,2.88-1.44,2.88-3.41,0,0-3.15-8.26-8.26-3.8,0,0-5.51,3.8-5.24-2.88l-3.15-.13-.13-20.71,15.99-2.23s-4.98-11.8-2.75-12.85c0,0,3.93,.26,4.46-3.15l13.24-1.57s.13-25.95-4.46-29.23c0,0-12.85,6.16-14.16,7.47,0,0-2.23-15.6-6.03-18.74,0,0,27.79-3.41,31.72-2.36l-.39-9.7,64.76,.26,19.4,5.24,21.63-.13-.26-6.42,4.06-.13,17.04,19.27,37.49,3.54,.39-8.13,25.69-5.11,1.31-10.75s3.54-3.28,6.82-1.05c0,0-.52,15.47,6.55,15.21,0,0,13.65-.54,21.64-64.75l-2.28-.31-.17-5.24,4.54-5.24-30.26-36.84-7.34,8.12-3.09-5.8-43.1-.39-.39,8.12-2.71,.19s-11.6-19.91-28.6-.58l-14.69,.19,.77-21.84-26.28-.97,.19,9.86-3.87,.39,.39,12.56-12.18,.39-.19-4.06-13.72-.19-.39-7.92s3.29-.58,3.48-2.32v-8.7l-14.3,.19v3.09l-10.05,.39,.39,25.9h-27.64l-.19-8.31,3.67-.19-.19-12.75-24.74-.19,.19,14.3h3.87l-.58,8.31-11.02-.19v15.65s-10.63,6.38-10.63,6.38c0,0-15.46,.77-17.97-2.13l15.85-16.43-21.26-20.1-14.49,22.03-18.55-16.04,7.54-24.93-11.6-7.92s3.87-5.41,8.31-4.44c0,0,1.16,8.5,13.72,7.34,0,0,4.8,1.87,6.71-1l57.78-28.89s34.38-5.73,37.01-15.76c0,0-5.49-4.54,2.63-4.54,0,0,24.83,13.13,27.22,7.88l16.71-5.73s16.71,12.89,24.59,10.98c0,0,24.11-3.34,25.31-23.4,0,0-14.33-.24-18.86,2.39l-9.79-11.7,10.27-10.51-4.06-8.36,4.3-3.82s6.69,12.18,14.33,9.31c0,0,3.58-4.06,1.43-11.22,0,0,19.34-.96,23.16-3.34,0,0,18.38-12.18,16.47-26.98l-20.77,2.63s-6.92,11.22-20.53,8.83l-1.91-12.18s32.71-10.74,31.75-34.62l-17.91,.72-18.62,13.85-7.64-6.21,15.52-19.34-1.19-21.97s-14.8-3.34-27.46,26.02l-7.88-4.3,8.36-13.61s-1.91-17.19-4.54-21.01c0,0-16.24,0-22.2,26.98h-3.82s.88,10.27-3.58,10.27c-.96,0-2.87,.72-4.06-4.3l-38.2,19.34,3.34,5.97s2.39,8.36-9.07-1.19c0,0-18.62-.96-19.58,17.19l-12.42,5.01-9.31-19.58-25.79,10.98,6.45,9.55-3.58,1.19,5.97,10.74-9.79,5.73s-.96-4.06-5.49-1.43l-8.6,4.06-5.01-6.45,3.58-2.87-5.97-7.64-13.13,5.97,3.1,2.87-10.74,4.06,11.94,22.92-22.92,13.13-4.54-7.4,4.3-2.39-6.69-10.98-23.88,12.42,7.16,14.33,4.54-1.91s6.92,8.83-6.69,10.27l7.4,12.89s-8.6,9.31-9.07,13.61c0,0-27.7,2.63-30.8,17.91l-5.25-5.49-4.54,12.18,6.69,2.15v7.16l-10.74,.72s4.06,16.95,6.45,19.82l-6.45,14.8-16.24,6.69-6.92-17.67s7.88-13.85-20.29-16.24c0,0-13.37,2.63-15.04,17.43,0,0,10.74,22.92,15.52,26.74,0,0-7.64,8.12-6.92-5.73l-14.09,5.49s3.1,7.64,3.82,7.64l-17.19,10.27s-19.1-11.46-20.29-16.95l-7.88,3.1-11.94-27.7-11.7,.72,15.04,29.37-9.31,5.73-10.98-25.79-12.42-1.43,17.19,32.47-8.12,5.25s-9.07-14.33-15.76-33.19l-15.04,1.67,21.73,39.16s-2.39,11.22-12.42-.24c0,0-6.69-4.3-9.79-17.43,0,0-1.67-12.89-16-23.4,0,0-10.98-14.09-2.39-32.47,0,0-23.64,4.3-32.95,24.83,0,0-6.92,21.97,6.69,39.39,0,0,8.36,10.74,10.03,31.99l-39.39-2.15-31.04-13.85-1.67,13.13,35.34,34.86s-20.53-6.45-29.61-15.76l-10.27,7.4,30.8,26.98s19.34,5.73,21.49,21.97c0,0,4.3,3.58,12.89,.24,0,0,4.78,2.15,4.78,8.36l10.51-3.1-.96-9.79,6.69-1.91,.96,5.25,10.98-4.06s-4.54-5.49-3.34-7.88l9.55-2.87,.24,8.12,14.56-3.1-1.67-6.21,14.33-8.12,4.06,14.8,10.27-3.34-8.83-14.09,6.21-2.87,4.3,11.22s6.69,.72,1.91-14.56c0,0,2.87-4.54,6.45,2.63,0,0,26.26,41.07,35.57,74.49,0,0-15.76,15.52-20.53,6.45l-20.06,3.1s7.16,9.79,10.03,11.22l-10.74,6.92-4.3-12.18-9.79,6.92,7.4,9.79-6.92,5.73-3.34-7.16-11.7,8.36,5.01,5.01-12.65,5.01s8.12,15.04,24.59,26.5l-3.1,4.54,7.4,6.69,4.3-5.25s10.27,5.49,14.33,9.55l-5.01-16.24,6.21-4.3,15.76,6.45-3.34-14.8,5.97-4.78,18.62,7.4-3.34-15.28s49.42-24.11,40.59-64.94c0,0,35.81,26.5,73.77,22.44l.48,5.97,22.68-4.54-1.67-6.69,24.35-4.54s2.87,6.21,3.58,6.69l-18.38,15.28,7.16,4.54,14.56-14.8s2.87,3.58,5.01,4.54l-9.55,13.85,5.25,5.01,8.83-13.61s5.49,2.87,7.88,3.1l-5.25,10.03,6.45,1.19,2.63-9.55s8.12,0,6.21,9.31l3.82,.24v5.49h-4.06l.24,3.1,4.3-.24-.24,4.78-14.33,.96-.24,4.06-9.55,.96,.24,8.36,8.6-.48,.24,1.91s-34.86,20.77-48.23,17.19c0,0-18.15,8.6-8.12,21.49,0,0,1.91,5.73-4.3,5.73l-.24,32.71-5.25,13.37s-.72,3.34,2.39,2.87l.24,2.87-8.83,.72s-1.43-5.25-8.12-2.39c0,0-5.97,9.55,4.06,15.28,0,0,17.43,7.64,55.15,3.1v-4.78l4.06-.48-1.43-6.69-2.87-.24v-5.73l10.98-2.87-.24-6.69s-8.12,5.49-11.22,2.87l-.72-5.73,6.69-.72,.24-5.97-10.03,1.19-.96-26.74-8.12,1.19s6.45-8.12-.24-10.74c0,0,1.19-9.79,44.17-26.98,0,0,21.01,26.98,55.63,4.54l34.38,28.41s8.36,19.1,21.25,18.15l1.19,7.64s34.38,20.06,36.77,28.89l5.12,.88Z"/>
        <rect class="cls-6" x="1678.22" y="689.65" width="59.07" height="59.07" rx="5.65" ry="5.65"/>
        <rect class="cls-6" x="1634.87" y="701.19" width="31.46" height="31.46" rx="3.71" ry="3.71"/>
        <circle class="cls-6" cx="1649.73" cy="744.36" r="6.47"/>
        <rect class="cls-6" x="1610.05" y="708.18" width="16.25" height="16.25" rx="1.82" ry="1.82"/>
        <rect class="cls-6" x="1586.46" y="709.4" width="16.43" height="16.43" rx="1.85" ry="1.85"/>
        <rect class="cls-6" x="1547.31" y="700.66" width="31.46" height="31.46" rx="3.24" ry="3.24"/>
        <rect class="cls-21" x="1553.45" y="706.61" width="19.75" height="19.75" rx="2.35" ry="2.35"/>
        <circle class="cls-6" cx="1563.96" cy="689.88" r="5.16"/>
        <circle class="cls-6" cx="1536.55" cy="717.2" r="5.16"/>
        <polygon class="cls-6" points="1528.95 754.57 1537.09 760.9 1531.3 763.25 1528.95 754.57"/>
        <circle class="cls-6" cx="1478.83" cy="680.11" r="5.16"/>
        <circle class="cls-6" cx="1478.28" cy="777.64" r="5.16"/>
        <circle class="cls-6" cx="1483.89" cy="796.09" r="5.16"/>
        <circle class="cls-6" cx="1487.87" cy="815.63" r="5.16"/>
        <circle class="cls-6" cx="1491.31" cy="832.64" r="5.16"/>
        <path class="cls-6" d="M1463.81,754.93l5.43,10.49,10.13-5.79s-9.59,.72-15.56-4.7Z"/>
        <rect class="cls-6" x="1413.69" y="711.14" width="22.44" height="22.44" rx="2.59" ry="2.59" transform="translate(-172.63 728.52) rotate(-27.1)"/>
        <rect class="cls-21" x="1418.21" y="715.66" width="13.93" height="13.93" rx="1.61" ry="1.61" transform="translate(-170.38 809.4) rotate(-30)"/>
        <rect class="cls-6" x="1392.52" y="705.35" width="16.65" height="16.65" rx="1.96" ry="1.96" transform="translate(-169.16 796.03) rotate(-30)"/>
        <rect class="cls-6" x="1367" y="707.54" width="19.05" height="19.05" rx="2.42" ry="2.42" transform="translate(-165.91 889.96) rotate(-33.91)"/>
        <rect class="cls-21" x="1370.44" y="710.78" width="12.48" height="12.48" rx="1.58" ry="1.58" transform="translate(-162.32 919.09) rotate(-34.99)"/>
        <circle class="cls-6" cx="1374.97" cy="695.4" r="5.07"/>
        <circle class="cls-6" cx="1369.63" cy="649.89" r="4.98"/>
        <circle class="cls-6" cx="1434.77" cy="647.72" r="5.16"/>
        <path class="cls-6" d="M1399.57,764.34s5.07,1.27,7.96-3.44c0,0,0,10.13-7.96,3.44Z"/>
        <circle class="cls-6" cx="1347.24" cy="770.22" r="19.36"/>
        <circle class="cls-21" cx="1347.24" cy="770.22" r="10.95"/>
        <circle class="cls-6" cx="1487.27" cy="917.13" r="5.86"/>
        <circle class="cls-6" cx="1505.89" cy="914.42" r="5.59"/>
        <circle class="cls-6" cx="1468.75" cy="919.75" r="6.03"/>
        <rect class="cls-6" x="1609.52" y="986" width="14.05" height="14.05" rx="1.74" ry="1.74" transform="translate(-228.7 1433.92) rotate(-45)"/>
        <circle class="cls-6" cx="1631.54" cy="1003.09" r="9.26"/>
        <circle class="cls-21" cx="1631.54" cy="1003.09" r="4.81"/>
        <circle class="cls-6" cx="1627.58" cy="1020.2" r="4.06"/>
        <rect class="cls-6" x="1410.19" y="998.63" width="11.6" height="11.6" rx="1.74" ry="1.74" transform="translate(-295.5 1295.44) rotate(-45)"/>
        <circle class="cls-6" cx="1415.6" cy="1022.54" r="9.26"/>
        <circle class="cls-21" cx="1415.6" cy="1022.54" r="4.81"/>
        <circle class="cls-6" cx="1398.4" cy="1028.02" r="4.06"/>
        <rect class="cls-6" x="1230.75" y="725.38" width="22.44" height="22.44" rx="2.59" ry="2.59" transform="translate(-199.21 646.74) rotate(-27.1)"/>
        <rect class="cls-21" x="1235.28" y="729.9" width="13.93" height="13.93" rx="1.61" ry="1.61" transform="translate(-202 719.84) rotate(-30)"/>
        <rect class="cls-6" x="1252.46" y="754.15" width="19.75" height="19.75" rx="2.32" ry="2.32" transform="translate(-212.89 733.53) rotate(-30)"/>
        <rect class="cls-6" x="1265.39" y="780.89" width="10.84" height="10.84" rx="1.41" ry="1.41" transform="translate(-222.9 740.75) rotate(-30)"/>
        <rect class="cls-6" x="1272.91" y="798.71" width="9.96" height="9.96" rx="1.12" ry="1.12" transform="translate(-230.64 746.62) rotate(-30)"/>
        <rect class="cls-6" x="1150.21" y="709.93" width="7.69" height="7.69" rx=".82" ry=".82" transform="translate(-202.27 672.66) rotate(-30)"/>
        <rect class="cls-6" x="1160.18" y="705.78" width="7.69" height="7.69" rx=".82" ry=".82" transform="translate(-198.86 677.08) rotate(-30)"/>
        <rect class="cls-6" x="1156.59" y="721.94" width="7.69" height="7.69" rx=".82" ry=".82" transform="translate(-207.42 677.46) rotate(-30)"/>
        <rect class="cls-6" x="1166.38" y="717.66" width="7.69" height="7.69" rx=".82" ry=".82" transform="translate(-203.97 681.78) rotate(-30)"/>
        <rect class="cls-6" x="1140.34" y="680.12" width="23.07" height="23.07" rx="2.46" ry="2.46" transform="translate(-191.5 668.6) rotate(-30)"/>
        <rect class="cls-21" x="1143.94" y="683.22" width="16.25" height="16.25" rx="2.07" ry="2.07" transform="translate(-191.32 668.65) rotate(-30)"/>
        <rect class="cls-6" x="1123.3" y="775.82" width="26.22" height="26.22" rx="3.03" ry="3.03" transform="translate(-242.21 673.9) rotate(-30)"/>
        <rect class="cls-21" x="1127.84" y="780.01" width="17.13" height="17.13" rx="1.91" ry="1.91" transform="translate(-242.04 673.85) rotate(-30)"/>
        <rect class="cls-6" x="1699.28" y="741.04" width="16.25" height="16.25" rx="1.82" ry="1.82"/>
        <rect class="cls-6" x="1701.2" y="680.56" width="16.25" height="16.25" rx="1.82" ry="1.82"/>
        <circle class="cls-17" cx="1187.79" cy="759.48" r="27"/>
        <circle class="cls-20" cx="1187.18" cy="760.09" r="22.81"/>
        <circle class="cls-14" cx="1186.26" cy="762.05" r="18.74"/>
        <circle class="cls-11" cx="1185.96" cy="763.23" r="15.99"/>
        <circle class="cls-18" cx="1185.49" cy="763.1" r="13.63"/>
        <circle class="cls-21" cx="1183.18" cy="769.07" r="4.85"/>
        <path class="cls-21" d="M483.33,1100.81l197.25-35.73c-2.62-7.6-11.88-6.2-11.88-6.2l-2.36-5.77c11.8-8.65-6.82-9.44-6.82-9.44l-3.41-4.46c9.96-12.32-7.6-9.44-7.6-9.44l-3.41-4.98c8.13-12.85-9.96-7.34-9.96-7.34l-2.36-4.72c10.22-9.44-6.55-10.49-6.55-10.49l-2.1-7.08c11.8-7.34-.26-10.49-1.57-11.54-1.31-1.05-.26-6.82-.26-6.82,12.32-2.1,2.88-10.75,2.88-10.75l2.1-6.29c12.32,4.72,8.39-7.08,8.39-7.08l4.98-3.15c9.7,10.22,10.22-3.67,10.22-3.67l6.03-.52c6.03,11.8,10.22,0,10.22,0,54.01,13.63,61.87-15.99,61.87-15.99,28.84-2.1,26.22-31.2,26.22-31.2-1.57,15.73-9.7,14.94-9.7,14.94,7.08-7.34,3.15-16.25,3.15-16.25-2.88,18.88-7.87,12.06-7.87,12.06,4.46-13.37,.79-14.94,.79-14.94,.26,16.78-7.86,14.16-7.86,14.16-10.22-24.38,13.11-58.2,13.11-58.2,13.37-14.16,18.88-7.86,18.88-7.86,1.84,8.65-1.31,15.99-1.31,15.99,4.72-1.05,6.55-14.94,6.55-14.94,1.57,4.19,.52,15.73,.52,15.73,6.55-2.88,5.77-16.78,5.77-16.78,3.41,6.82,1.31,16.78,1.31,16.78,12.32-31.2-6.29-36.97-6.29-36.97,3.67-27-7.34-38.54-7.34-38.54l11.27-5.51c5.24,2.62,6.82,.26,6.82,.26-3.41,.26-5.24-3.15-5.24-3.15,14.94-6.82,13.11-10.75,13.11-10.75-2.88,2.36-5.77,2.62-5.77,2.62-.79-1.05,2.1-4.46,2.1-4.46-5.51,0-5.24,7.08-5.24,7.08-7.6,5.77-19.14,10.75-19.14,10.75-.79-2.62-7.87-8.65-7.87-8.65-1.05-11.54,8.39-19.92,8.39-19.92,17.83,4.19,20.45-4.98,20.45-4.98-1.84,1.84-7.6,2.62-7.6,2.62,2.62-1.84,4.46-5.77,4.46-5.77-9.7,9.18-14.94,4.46-14.94,4.46,.52-3.67,18.61-10.75,18.61-10.75-4.98-1.05-17.04,4.72-17.04,4.72-2.62-2.1-2.88-11.8-2.88-11.8-1.57,9.18,.79,13.89,.79,13.89-11.54,7.6-14.68,24.12-14.68,24.12-1.31-2.88-12.32-7.6-12.32-7.6,4.98-9.18,.79-18.35,.79-18.35,7.86-3.67,6.29-9.7,6.29-9.7-4.19,7.34-8.13,7.6-8.13,7.6-1.57-.79-3.41-11.01-3.41-11.01-2.88,5.51,2.36,13.63,2.36,13.63l-.26,4.46c-3.93-1.05-8.39-11.27-8.39-11.27-1.84,7.87,9.18,14.68,9.18,14.68,3.67,8.13-2.1,7.34-2.1,7.34-2.36-4.98-40.37-15.99-40.37-15.99-3.93-11.8,4.19-17.57,4.19-17.57,16.25-3.41,13.37-12.58,13.37-12.58-4.46,10.49-12.58,8.91-12.58,8.91,12.85-12.85,8.39-23.86,8.39-23.86-.52,4.98-2.62,11.27-2.62,11.27-1.57-.26-3.67-9.7-3.67-9.7-1.57,10.75,2.62,11.54,2.62,11.54-.26,3.15-4.98,5.51-4.98,5.51-5.24-1.84-6.29-16.25-6.29-16.25-3.15,11.01,1.57,17.57,1.57,17.57,3.15,1.84,2.1,3.41,2.1,3.41-9.18,8.91-6.82,21.5-6.82,21.5l-2.88-.26c-4.46-18.61-31.72-54.01-31.72-54.01,1.31-8.13-9.18-8.39-9.18-8.39l-12.85-8.65-2.1-4.19c-7.6-8.39-11.27-.52-11.27-.52-27.27-7.6-22.81,11.54-22.81,11.54,13.37,19.4,33.03-3.93,33.03-3.93,2.62,11.27,10.75,6.55,10.75,6.55,23.33,15.73,19.92,45.35,19.92,45.35-3.77,8.22-18.5,9.84-28.26,9.97,.6-5.21-.4-17.14-.4-17.14,10.84-9.61,8.04-17.65,8.04-17.65-2.45,11.71-9.44,14.51-9.44,14.51-.35-2.27-2.27-6.99-2.27-6.99,7.52-5.42,5.24-8.21,5.24-8.21-2.1,4.54-7.34,5.07-7.34,5.07-1.57-.7-4.02-8.56-4.02-8.56-3.32,2.45,1.75,9.26,1.75,9.26,1.05,1.22,1.05,4.89,1.05,4.89-8.04-1.4-14.86-9.26-14.86-9.26,.35,9.44,15.29,11.8,15.29,11.8,3.75,1.61,2.73,17.82,2.38,22.26-2.68-.08-4.38-.24-4.38-.24-26.48-35.13-39.33-33.56-39.33-33.56,36.7,35.13-73.48,48.66-73.48,48.66,0,0-145.45,69.26-26.95,350.87Z"/>
        <path class="cls-23" d="M731.36,791.46s15.47-3.15,19.92,7.08c0,0,3.15,18.09-8.65,19.4,0,0-17.3,.26-18.35-11.54,0,0-.26-13.37,7.08-14.94Z"/>
        <path class="cls-10" d="M704.36,817.68s7.34-12.32,14.42-5.77c0,0,9.7,5.77,2.1,13.89,0,0-6.82,7.34-12.58,1.31,0,0-6.03-5.77-3.93-9.44Z"/>
        <path class="cls-7" d="M679.19,772.85s10.49-12.85,19.14-4.46c0,0,9.18,8.39,1.31,14.68,0,0-8.13,9.44-13.89,5.24,0,0-9.7-8.39-6.55-15.47Z"/>
        <path class="cls-7" d="M628.59,810.07s7.08-12.85,18.61-7.6c0,0,11.01,9.18,2.36,17.83,0,0-8.65,8.39-14.42,2.36,0,0-8.91-8.65-6.55-12.58Z"/>
        <path class="cls-21" d="M633.66,811.18s4.1-7.44,10.78-4.4c0,0,6.37,5.31,1.37,10.32,0,0-5.01,4.86-8.35,1.37,0,0-5.16-5.01-3.79-7.29Z"/>
        <path class="cls-7" d="M659.79,807.71s11.8-14.42,24.38-8.91c0,0,20.71,11.8,7.6,25.17,0,0-13.63,17.04-25.43,4.72,0,0-7.6-4.72-6.55-20.97Z"/>
        <path class="cls-7" d="M626.75,757.64s28.05-22.28,36.97-5.77c0,0,15.21,20.45,1.05,30.41,0,0-16.25,23.07-27.79,8.65,0,0-20.71-16.25-10.22-33.3Z"/>
        <path class="cls-7" d="M591.89,762.88s8.65-13.37,16.78-5.77c0,0,10.75,6.55,3.41,16.25,0,0-7.87,8.13-14.42,3.41,0,0-7.34-5.24-5.77-13.89Z"/>
        <path class="cls-21" d="M595.36,764.48s6.06-9.36,11.75-4.04c0,0,7.52,4.59,2.39,11.38,0,0-5.51,5.69-10.09,2.39,0,0-5.14-3.67-4.04-9.73Z"/>
        <path class="cls-7" d="M602.37,807.45s3.67-8.65,9.7-6.03c0,0,8.39,3.41,5.77,11.01,0,0-5.77,6.55-11.27,4.19,0,0-5.51-6.03-4.19-9.18Z"/>
        <path class="cls-23" d="M710.91,787.53s7.6-9.96,13.89-1.31c0,0,2.1,10.49-7.08,10.49,0,0-7.87-.79-6.82-9.18Z"/>
        <path class="cls-21" d="M714.14,789.27s3.77-4.94,6.89-.65c0,0,1.04,5.2-3.51,5.2,0,0-3.9-.39-3.38-4.55Z"/>
        <path class="cls-2" d="M583.5,805.88s9.18-3.93,8.39,4.98c0,0-1.84,5.77-8.13,3.67,0,0-4.98-4.19-.26-8.65Z"/>
      </g>
    </g>
  </g>
</svg>